<svg width="81" height="29" viewBox="0 0 81 29" fill="none" xmlns="http://www.w3.org/2000/svg">
<g clip-path="url(#clip0_1928_4361)">
<path d="M65.2535 27.5315C65.1373 27.5315 65.0432 27.4361 65.0432 27.3184V1.65028C65.0432 1.54922 65.1133 1.46208 65.2109 1.44162L69.635 0.514744C69.7654 0.487405 69.8878 0.58838 69.8878 0.723404V27.3184C69.8878 27.4361 69.7937 27.5315 69.6776 27.5315H65.2535Z" fill="#1C4396"/>
<path d="M9.68211 28.0749C7.91583 28.0749 6.3388 27.6402 4.95101 26.7709C3.56323 25.9015 2.46562 24.7126 1.65818 23.204C0.850741 21.6955 0.447021 19.9824 0.447021 18.0647C0.447021 16.1472 0.850741 14.4468 1.65818 12.9639C2.46562 11.4553 3.56323 10.2791 4.95101 9.43538C6.3388 8.56605 7.91583 8.13139 9.68211 8.13139C11.0951 8.13139 12.3315 8.39986 13.3913 8.93679C14.2425 9.36807 14.9635 9.93954 15.5541 10.6512C15.6873 10.8115 15.965 10.7204 15.965 10.5109V1.18909C15.965 1.08804 16.035 1.00089 16.1327 0.980433L20.5568 0.0535619C20.6873 0.0262239 20.8096 0.127199 20.8096 0.262223V27.4016C20.8096 27.5193 20.7154 27.6146 20.5994 27.6146H16.6677C16.5672 27.6146 16.4809 27.5427 16.4614 27.4428L16.0581 25.3703C16.0226 25.1878 15.7866 25.1335 15.669 25.2763C15.1045 25.9626 14.3956 26.5759 13.5426 27.116C12.5586 27.7552 11.2717 28.0749 9.68211 28.0749ZM10.704 23.7793C12.2684 23.7793 13.5426 23.2552 14.5267 22.2069C15.536 21.133 16.0407 19.7651 16.0407 18.1031C16.0407 16.4412 15.536 15.0861 14.5267 14.0377C13.5426 12.9639 12.2684 12.4269 10.704 12.4269C9.16484 12.4269 7.89059 12.951 6.8813 13.9994C5.872 15.0477 5.36735 16.4028 5.36735 18.0647C5.36735 19.7267 5.872 21.0947 6.8813 22.1685C7.89059 23.2424 9.16484 23.7793 10.704 23.7793Z" fill="#1C4396"/>
<path d="M32.6227 28.077C30.7303 28.077 29.0523 27.6679 27.5889 26.8498C26.1254 26.0315 24.9773 24.8809 24.1446 23.398C23.312 21.915 22.8956 20.2019 22.8956 18.2587C22.8956 16.2899 23.2994 14.5385 24.1067 13.0044C24.9395 11.4702 26.0749 10.2813 27.5131 9.43754C28.9766 8.56821 30.6924 8.13354 32.6606 8.13354C34.5026 8.13354 36.13 8.54264 37.543 9.36084C38.956 10.179 40.0536 11.304 40.8359 12.7359C41.6433 14.1421 42.047 15.7147 42.047 17.4533C42.047 17.7345 42.0345 18.0286 42.0092 18.3354C42.0092 18.5812 42.0011 18.8351 41.9849 19.0974C41.9781 19.2085 41.8866 19.2942 41.7766 19.2942H27.9277C27.8058 19.2942 27.7092 19.399 27.7213 19.5219C27.8566 20.8967 28.355 21.9843 29.2164 22.7844C30.1499 23.6281 31.2728 24.05 32.5849 24.05C33.5689 24.05 34.389 23.8326 35.0451 23.398C35.6871 22.9643 36.1723 22.417 36.5006 21.7561C36.5373 21.6821 36.6113 21.6338 36.6932 21.6338H41.1973C41.3379 21.6338 41.4389 21.771 41.3945 21.9064C41.0344 23.0022 40.4697 24.0108 39.7005 24.9321C38.893 25.9037 37.8837 26.6708 36.6725 27.2332C35.4866 27.7957 34.1367 28.077 32.6227 28.077ZM32.6606 12.1223C31.4746 12.1223 30.4275 12.4674 29.5191 13.1577C28.6667 13.7816 28.1032 14.7206 27.8284 15.975C27.7999 16.1051 27.8994 16.226 28.0309 16.226H36.9032C37.0244 16.226 37.1209 16.1224 37.1087 16.0002C36.9944 14.8528 36.5462 13.9308 35.7641 13.2345C34.9315 12.493 33.8969 12.1223 32.6606 12.1223Z" fill="#1C4396"/>
<path d="M53.6981 28.077C51.8056 28.077 50.1277 27.6679 48.6642 26.8498C47.2007 26.0315 46.0527 24.8809 45.22 23.398C44.3873 21.915 43.9709 20.2019 43.9709 18.2587C43.9709 16.2899 44.3747 14.5385 45.1822 13.0044C46.0148 11.4702 47.1503 10.2813 48.5886 9.43754C50.052 8.56821 51.7678 8.13354 53.736 8.13354C55.5779 8.13354 57.2054 8.54264 58.6185 9.36084C60.0315 10.179 61.1291 11.304 61.9113 12.7359C62.7187 14.1421 63.1225 15.7147 63.1225 17.4533C63.1225 17.7345 63.1098 18.0286 63.0846 18.3354C63.0846 18.5812 63.0765 18.8351 63.0602 19.0974C63.0534 19.2085 62.9619 19.2942 62.852 19.2942H49.003C48.8812 19.2942 48.7846 19.399 48.7967 19.5219C48.932 20.8967 49.4303 21.9843 50.2917 22.7844C51.2254 23.6281 52.3481 24.05 53.6603 24.05C54.6444 24.05 55.4644 23.8326 56.1204 23.398C56.7624 22.9643 57.2476 22.417 57.5759 21.7561C57.6128 21.6821 57.6868 21.6338 57.7686 21.6338H62.2726C62.4134 21.6338 62.5143 21.771 62.4698 21.9064C62.1098 23.0022 61.545 24.0108 60.7758 24.9321C59.9683 25.9037 58.959 26.6708 57.748 27.2332C56.562 27.7957 55.212 28.077 53.6981 28.077ZM53.736 12.1223C52.5501 12.1223 51.5029 12.4674 50.5945 13.1577C49.742 13.7816 49.1785 14.7206 48.9039 15.975C48.8753 16.1051 48.9748 16.226 49.1063 16.226H57.9785C58.0997 16.226 58.1963 16.1224 58.1841 16.0002C58.0697 14.8528 57.6215 13.9308 56.8396 13.2345C56.0068 12.493 54.9724 12.1223 53.736 12.1223Z" fill="#1C4396"/>
<path d="M76.2363 27.537C78.0376 27.537 79.4979 26.0572 79.4979 24.2319C79.4979 22.4065 78.0376 20.9268 76.2363 20.9268C74.4349 20.9268 72.9746 22.4065 72.9746 24.2319C72.9746 26.0572 74.4349 27.537 76.2363 27.537Z" fill="#2C71F0"/>
</g>
<defs>
<clipPath id="clip0_1928_4361">
<rect width="79.6619" height="28.0775" fill="white" transform="translate(0.447021)"/>
</clipPath>
</defs>
</svg>
