<svg width="507" height="363" viewBox="0 0 507 363" fill="none" xmlns="http://www.w3.org/2000/svg">
<path d="M446.984 129.43C446.769 129.43 446.561 129.312 446.454 129.105C446.302 128.807 446.413 128.44 446.707 128.285C457.837 122.371 462.294 108.39 464.073 97.7006C465.909 86.6837 465.444 78.348 462.608 71.4596C459.619 64.1996 452.147 56.6723 442.829 57.3039C442.499 57.3209 442.215 57.0728 442.193 56.7376C442.171 56.4037 442.42 56.1133 442.751 56.0915C451.252 55.5264 459.867 61.6454 463.712 70.9913C466.637 78.0988 467.127 86.6498 465.254 97.9027C462.637 113.618 456.415 124.495 447.263 129.36C447.172 129.41 447.077 129.43 446.984 129.43Z" fill="#653F3F"/>
<path d="M466.726 350.41L233.145 10.3584L234.125 9.66382L467.706 349.715L466.726 350.41Z" fill="#4C366A"/>
<path d="M324.519 308.713C405.088 308.713 470.401 242.39 470.401 160.577C470.401 78.7631 405.088 12.4402 324.519 12.4402C243.95 12.4402 178.637 78.7631 178.637 160.577C178.637 242.39 243.95 308.713 324.519 308.713Z" fill="url(#paint0_linear_1864_5152)"/>
<path d="M243.133 0.558105H225.357V18.6087H243.133V0.558105Z" fill="#D62929"/>
<path d="M324.515 321.33C237.225 321.33 166.211 249.217 166.211 160.578C166.211 102.571 197.171 48.8511 247.009 20.3789C247.584 20.0497 248.313 20.2567 248.638 20.8423C248.962 21.4255 248.758 22.1672 248.182 22.4963C199.095 50.5402 168.602 103.448 168.602 160.58C168.602 247.88 238.544 318.902 324.515 318.902C410.486 318.902 480.429 247.88 480.429 160.58C480.429 159.91 480.965 159.367 481.625 159.367C482.285 159.367 482.82 159.911 482.82 160.58C482.821 249.218 411.805 321.33 324.515 321.33Z" fill="#4C366A"/>
<path d="M396.292 303H386V313.451H396.292V303Z" fill="#6E3FAF"/>
<path d="M488.724 362.997H313.771L488.724 346.847V362.997Z" fill="#458E4C"/>
<path d="M435.396 305.047L470.95 355.398" stroke="#458E4C" stroke-width="9.33" stroke-miterlimit="10"/>
<path d="M187.856 202.71C189.535 204.641 191.783 205.953 193.989 207.227C199.885 210.638 205.782 214.049 211.679 217.46C211.038 199.497 226.705 182.607 244.4 182.18C242.415 187.172 240.43 192.165 238.444 197.156C247.849 195.963 257.372 195.702 266.828 196.378C280.881 175.656 294.934 154.933 308.986 134.21C315.613 124.438 324.031 113.633 335.714 113.414C338.857 119.683 342.001 125.952 345.144 132.221C349.543 132.353 353.94 132.482 358.339 132.613C346.536 118.666 337.31 102.478 331.284 85.1364C293.39 83.4315 255.495 81.7243 217.601 80.0194C212.066 79.7701 206.091 79.6806 201.06 81.6408C186.861 104.494 178.637 131.556 178.637 160.574C178.637 164.996 178.839 169.369 179.211 173.691C180.264 180.78 181.841 187.789 183.963 194.633C184.856 197.515 185.886 200.446 187.856 202.71Z" fill="#33D043"/>
<path d="M294.085 55.8856C296.483 49.152 301.982 44.1318 307.278 39.4068C313.962 33.4415 320.645 27.4763 327.33 21.511C328.363 20.589 329.45 19.6368 330.785 19.2992C331.926 19.01 333.124 19.2036 334.282 19.4044C348.901 21.949 363.312 25.7327 377.316 30.6985C363.828 42.785 348.147 52.0221 332.58 61.1769C330.932 62.1461 329.25 63.1286 327.388 63.5279C325.446 63.9441 323.434 63.6997 321.464 63.4553C313.216 62.428 304.967 61.4019 296.719 60.3747C295.798 60.2609 294.786 60.0988 294.185 59.38C293.403 58.4471 293.674 57.0363 294.085 55.8856Z" fill="#33D043"/>
<path d="M445.557 188.991C445.461 184.672 446.639 180.412 446.702 176.093C446.763 171.773 445.34 166.972 441.601 164.91C437.111 165.872 433.808 169.598 430.166 172.433C426.524 175.269 421.246 177.275 417.509 174.569C415.485 173.104 414.475 170.616 412.897 168.665C408.812 163.604 401.321 162.739 395.102 164.448C388.882 166.156 383.443 169.918 377.684 172.854C371.923 175.79 365.477 177.956 359.097 177.026C352.717 176.095 346.546 171.358 345.584 164.886C349.283 158.548 352.981 152.211 356.68 145.873C369.855 150.355 383.403 153.713 397.131 155.898C406.242 157.348 415.873 158.226 424.426 154.726C432.416 151.456 439.904 144.391 448.32 146.262C445.627 158.134 454.143 171.396 465.928 173.685C461.438 184.557 458.507 196.091 457.26 207.811C450.408 204.306 445.731 196.784 445.557 188.991Z" fill="#33D043"/>
<path d="M364.515 259.816C359.672 259.658 354.985 261.565 350.147 261.863C340.767 262.44 331.367 256.221 328.099 247.274C327.027 244.338 325.887 240.548 322.821 240.213C321.611 240.08 320.431 240.587 319.314 241.084C307.596 246.297 295.879 251.509 284.161 256.722C278.607 259.193 272.984 261.705 268.235 265.532C264.439 268.588 261.311 272.4 257.887 275.881C254.332 279.493 250.432 282.751 246.273 285.622C268.884 300.241 295.726 308.715 324.517 308.715C347.304 308.715 368.867 303.406 388.08 293.947C387.473 286.874 386.382 279.781 383.231 273.481C379.578 266.178 372.574 260.08 364.515 259.816Z" fill="#C8D675"/>
<path d="M211.1 319.565L199.084 303.295L215.105 291.093L227.122 307.363L211.1 319.565Z" fill="#734D5B"/>
<path d="M207.297 288.785L208.128 276.901L219.833 277.745L219.001 289.63L207.297 288.785Z" fill="#E94A47"/>
<path d="M218.106 204.28H200.152V222.51H218.106V204.28Z" fill="#FEFEFE"/>
<path d="M322.135 1.50366H304.181V19.7346H322.135V1.50366Z" fill="#CEF72A"/>
<path d="M159.274 292.995L154.248 304.415L143.002 299.313L148.027 287.893L159.274 292.995Z" fill="#6E3FAF"/>
<path d="M465.952 23.4057L460.927 34.8256L449.68 29.7219L454.706 18.302L465.952 23.4057Z" fill="#CEF72A"/>
<path d="M426.309 12.916L421.283 24.3359L410.037 19.2321L415.062 7.81226L426.309 12.916Z" fill="#A1C3FC" fill-opacity="0.4"/>
<path d="M347.033 159.1L337.924 149.851L347.033 140.602L356.141 149.851L347.033 159.1Z" fill="#D6D7D8" fill-opacity="0.4"/>
<path d="M346.042 150.399L336.934 141.15L346.042 131.901L355.151 141.15L346.042 150.399Z" fill="#D62929"/>
<path d="M192.982 121.22C192.722 121.22 192.482 121.046 192.407 120.777C192.318 120.454 192.502 120.119 192.82 120.028L198.571 118.37C198.889 118.278 199.22 118.466 199.31 118.788C199.4 119.111 199.216 119.446 198.898 119.538L193.147 121.196C193.091 121.214 193.037 121.22 192.982 121.22ZM201.035 118.9C200.774 118.9 200.535 118.726 200.461 118.457C200.372 118.134 200.555 117.799 200.874 117.708L203.174 117.047C203.495 116.956 203.822 117.142 203.912 117.465C204.002 117.788 203.818 118.124 203.499 118.214L201.199 118.876C201.145 118.894 201.09 118.9 201.035 118.9ZM205.636 117.574C205.376 117.574 205.136 117.4 205.063 117.133C204.972 116.809 205.157 116.474 205.474 116.382L206.049 116.217C206.371 116.125 206.697 116.313 206.788 116.634C206.879 116.957 206.694 117.292 206.377 117.384L205.802 117.55C205.746 117.568 205.691 117.574 205.636 117.574ZM208.514 116.747C208.253 116.747 208.014 116.572 207.939 116.304C207.849 115.981 208.033 115.645 208.351 115.555L214.104 113.898C214.421 113.805 214.752 113.994 214.842 114.317C214.931 114.64 214.747 114.975 214.429 115.066L208.677 116.722C208.62 116.739 208.567 116.747 208.514 116.747ZM216.565 114.428C216.305 114.428 216.065 114.254 215.991 113.985C215.902 113.662 216.086 113.327 216.404 113.236L218.704 112.573C219.025 112.483 219.353 112.669 219.442 112.992C219.532 113.315 219.348 113.65 219.03 113.741L216.729 114.404C216.674 114.42 216.619 114.428 216.565 114.428ZM221.166 113.102C220.906 113.102 220.667 112.928 220.593 112.659C220.503 112.336 220.687 112.001 221.005 111.91L221.58 111.746C221.895 111.653 222.229 111.841 222.318 112.164C222.408 112.487 222.224 112.823 221.906 112.913L221.331 113.078C221.275 113.095 221.22 113.102 221.166 113.102ZM224.043 112.273C223.782 112.273 223.543 112.099 223.468 111.83C223.378 111.507 223.562 111.172 223.88 111.081L229.631 109.424C229.951 109.331 230.28 109.519 230.371 109.841C230.462 110.164 230.276 110.499 229.958 110.591L224.207 112.249C224.151 112.266 224.096 112.273 224.043 112.273ZM232.095 109.952C231.835 109.952 231.595 109.778 231.521 109.511C231.432 109.188 231.616 108.853 231.933 108.761L234.233 108.098C234.557 108.007 234.882 108.194 234.972 108.515C235.063 108.838 234.878 109.173 234.561 109.265L232.261 109.928C232.204 109.945 232.149 109.952 232.095 109.952ZM236.695 108.628C236.435 108.628 236.196 108.453 236.122 108.185C236.032 107.862 236.216 107.526 236.534 107.436L237.109 107.271C237.426 107.178 237.758 107.367 237.847 107.69C237.937 108.013 237.753 108.348 237.435 108.439L236.86 108.603C236.806 108.619 236.751 108.628 236.695 108.628ZM239.572 107.799C239.311 107.799 239.072 107.624 238.998 107.356C238.907 107.033 239.092 106.698 239.411 106.607L245.162 104.949C245.481 104.856 245.81 105.045 245.901 105.367C245.991 105.69 245.807 106.025 245.488 106.117L239.737 107.774C239.682 107.791 239.626 107.799 239.572 107.799ZM247.625 105.479C247.365 105.479 247.126 105.305 247.05 105.037C246.96 104.714 247.145 104.379 247.462 104.287L249.762 103.624C250.084 103.533 250.411 103.721 250.501 104.042C250.592 104.365 250.407 104.7 250.09 104.792L247.79 105.455C247.734 105.473 247.678 105.479 247.625 105.479ZM252.226 104.153C251.965 104.153 251.726 103.979 251.651 103.711C251.56 103.388 251.745 103.053 252.062 102.961L252.637 102.795C252.956 102.702 253.286 102.891 253.376 103.213C253.467 103.535 253.282 103.871 252.965 103.963L252.39 104.129C252.335 104.146 252.28 104.153 252.226 104.153ZM255.102 103.325C254.842 103.325 254.602 103.151 254.528 102.883C254.439 102.559 254.623 102.224 254.941 102.134L260.692 100.477C261.005 100.384 261.34 100.573 261.43 100.896C261.52 101.219 261.336 101.554 261.017 101.645L255.266 103.301C255.211 103.318 255.156 103.325 255.102 103.325ZM263.154 101.006C262.894 101.006 262.655 100.832 262.581 100.563C262.491 100.24 262.675 99.9047 262.993 99.814L265.293 99.1509C265.614 99.0589 265.942 99.2477 266.032 99.5696C266.121 99.8926 265.937 100.228 265.619 100.319L263.319 100.982C263.263 101 263.207 101.006 263.154 101.006ZM267.756 99.6809C267.496 99.6809 267.256 99.5066 267.182 99.2392C267.092 98.9162 267.277 98.581 267.594 98.489L268.168 98.3233C268.488 98.2301 268.817 98.4189 268.908 98.7407C268.998 99.0626 268.813 99.3989 268.496 99.4909L267.922 99.6567C267.865 99.6736 267.809 99.6809 267.756 99.6809ZM270.632 98.8532C270.372 98.8532 270.132 98.679 270.057 98.4104C269.968 98.0873 270.152 97.7522 270.47 97.6614L276.221 96.0037C276.54 95.9106 276.869 96.0993 276.96 96.4212C277.05 96.7442 276.866 97.0794 276.548 97.1714L270.797 98.829C270.741 98.846 270.686 98.8532 270.632 98.8532ZM278.684 96.5313C278.424 96.5313 278.185 96.357 278.111 96.0896C278.021 95.7666 278.205 95.4314 278.522 95.3394L280.822 94.6764C281.144 94.5844 281.471 94.7732 281.562 95.0938C281.653 95.4169 281.467 95.752 281.15 95.844L278.85 96.5071C278.793 96.524 278.739 96.5313 278.684 96.5313ZM283.286 95.2063C283.026 95.2063 282.786 95.0321 282.712 94.7635C282.623 94.4404 282.807 94.1052 283.125 94.0145L283.7 93.8499C284.013 93.7568 284.348 93.9455 284.438 94.2686C284.527 94.5917 284.344 94.9268 284.025 95.0176L283.451 95.1821C283.395 95.1991 283.339 95.2063 283.286 95.2063ZM286.162 94.3775C285.902 94.3775 285.662 94.2033 285.589 93.9346C285.499 93.6116 285.683 93.2764 286 93.1857L291.752 91.528C292.067 91.4348 292.401 91.6236 292.49 91.9466C292.58 92.2697 292.396 92.6049 292.078 92.6956L286.326 94.3533C286.27 94.3702 286.215 94.3775 286.162 94.3775ZM294.213 92.0579C293.953 92.0579 293.714 91.8837 293.64 91.6151C293.55 91.292 293.734 90.9569 294.052 90.8661L296.353 90.203C296.667 90.1087 297.001 90.2986 297.091 90.6217C297.18 90.9448 296.996 91.2799 296.678 91.3707L294.378 92.0337C294.322 92.0507 294.268 92.0579 294.213 92.0579ZM298.815 90.7318C298.555 90.7318 298.315 90.5576 298.241 90.2902C298.151 89.9671 298.336 89.6319 298.653 89.54L299.228 89.3742C299.547 89.281 299.876 89.4698 299.967 89.7916C300.058 90.1135 299.873 90.4499 299.556 90.5418L298.981 90.7076C298.924 90.7245 298.871 90.7318 298.815 90.7318ZM301.691 89.903C301.431 89.903 301.191 89.7287 301.118 89.4601C301.028 89.137 301.212 88.8019 301.53 88.7111L307.281 87.0546C307.595 86.9603 307.93 87.1502 308.019 87.4733C308.109 87.7964 307.925 88.1315 307.607 88.2223L301.856 89.8788C301.801 89.8969 301.746 89.903 301.691 89.903ZM309.744 87.5846C309.483 87.5846 309.244 87.4104 309.17 87.1418C309.081 86.8187 309.264 86.4835 309.583 86.3928L311.883 85.7297C312.197 85.639 312.531 85.8253 312.621 86.1484C312.711 86.4714 312.527 86.8066 312.208 86.8973L309.908 87.5604C309.853 87.5774 309.798 87.5846 309.744 87.5846ZM314.345 86.2585C314.085 86.2585 313.845 86.0842 313.77 85.8168C313.68 85.4938 313.865 85.1586 314.182 85.0666L314.757 84.9009C315.08 84.8077 315.405 84.9977 315.496 85.3183C315.587 85.6414 315.402 85.9766 315.085 86.0685L314.51 86.2343C314.454 86.2524 314.4 86.2585 314.345 86.2585ZM317.221 85.4308C316.961 85.4308 316.722 85.2566 316.648 84.988C316.557 84.6649 316.742 84.3298 317.06 84.239L322.812 82.5813C323.131 82.4869 323.46 82.6769 323.551 82.9988C323.64 83.3218 323.456 83.657 323.138 83.749L317.387 85.4066C317.33 85.4236 317.275 85.4308 317.221 85.4308ZM325.275 83.1113C325.015 83.1113 324.775 82.9371 324.7 82.6696C324.61 82.3466 324.795 82.0114 325.112 81.9195L327.412 81.2564C327.734 81.1644 328.06 81.3532 328.151 81.6738C328.242 81.9969 328.057 82.3321 327.74 82.424L325.44 83.0871C325.383 83.104 325.328 83.1113 325.275 83.1113ZM329.874 81.7851C329.614 81.7851 329.374 81.6109 329.301 81.3423C329.211 81.0192 329.395 80.6841 329.713 80.5933L330.288 80.4287C330.606 80.338 330.937 80.5243 331.026 80.8474C331.116 81.1705 330.932 81.5056 330.614 81.5964L330.039 81.7609C329.984 81.7779 329.93 81.7851 329.874 81.7851ZM332.752 80.9575C332.491 80.9575 332.252 80.7833 332.178 80.5147C332.088 80.1916 332.272 79.8564 332.591 79.7657L338.342 78.108C338.66 78.0136 338.99 78.2036 339.081 78.5254C339.172 78.8485 338.987 79.1837 338.67 79.2756L332.919 80.9333C332.86 80.949 332.806 80.9575 332.752 80.9575ZM340.803 78.6368C340.543 78.6368 340.303 78.4625 340.229 78.1939C340.14 77.8708 340.324 77.5357 340.642 77.4449L342.942 76.7818C343.257 76.6911 343.591 76.8774 343.68 77.2005C343.77 77.5236 343.586 77.8587 343.268 77.9495L340.967 78.6126C340.913 78.6295 340.857 78.6368 340.803 78.6368ZM345.406 77.3106C345.145 77.3106 344.906 77.1364 344.832 76.8678C344.743 76.5447 344.926 76.2095 345.245 76.1188L345.819 75.9542C346.135 75.8635 346.468 76.0498 346.558 76.3729C346.647 76.6959 346.463 77.0311 346.145 77.1218L345.57 77.2864C345.515 77.3033 345.459 77.3106 345.406 77.3106ZM348.281 76.4818C348.02 76.4818 347.781 76.3075 347.707 76.0401C347.617 75.7171 347.801 75.3819 348.12 75.2899L353.871 73.6322C354.188 73.5379 354.519 73.7278 354.61 74.0509C354.7 74.374 354.516 74.7091 354.197 74.7999L348.446 76.4576C348.389 76.4757 348.335 76.4818 348.281 76.4818ZM356.333 74.1634C356.073 74.1634 355.833 73.9892 355.76 73.7218C355.67 73.3987 355.854 73.0635 356.171 72.9716L358.471 72.3085C358.793 72.2153 359.12 72.4053 359.21 72.726C359.301 73.049 359.116 73.3842 358.799 73.4762L356.499 74.1392C356.443 74.1562 356.389 74.1634 356.333 74.1634ZM360.935 72.8373C360.674 72.8373 360.435 72.663 360.361 72.3956C360.27 72.0726 360.455 71.7374 360.772 71.6454L361.347 71.4797C361.665 71.3889 361.996 71.5753 362.087 71.8971C362.177 72.2202 361.992 72.5554 361.675 72.6473L361.1 72.8131C361.045 72.83 360.989 72.8373 360.935 72.8373ZM363.811 72.0096C363.551 72.0096 363.311 71.8354 363.237 71.5668C363.148 71.2437 363.332 70.9086 363.65 70.8178L369.402 69.1613C369.724 69.0694 370.051 69.2581 370.14 69.58C370.23 69.9031 370.046 70.2382 369.728 70.329L363.975 71.9854C363.92 72.0024 363.865 72.0096 363.811 72.0096ZM371.863 69.6889C371.603 69.6889 371.363 69.5147 371.29 69.246C371.2 68.923 371.384 68.5878 371.702 68.4971L374.002 67.834C374.318 67.742 374.651 67.9284 374.741 68.2526C374.83 68.5757 374.646 68.9109 374.328 69.0016L372.028 69.6647C371.972 69.6828 371.918 69.6889 371.863 69.6889ZM376.465 68.364C376.205 68.364 375.965 68.1897 375.891 67.9211C375.802 67.598 375.986 67.2629 376.304 67.1721L376.879 67.0076C377.192 66.9156 377.527 67.1019 377.617 67.4262C377.706 67.7493 377.522 68.0844 377.204 68.1752L376.629 68.3398C376.574 68.3567 376.519 68.364 376.465 68.364ZM379.341 67.5363C379.081 67.5363 378.841 67.3621 378.767 67.0947C378.678 66.7716 378.862 66.4364 379.18 66.3445L384.931 64.6868C385.249 64.596 385.58 64.7824 385.67 65.1055C385.761 65.4285 385.576 65.7637 385.258 65.8544L379.507 67.5121C379.45 67.5291 379.394 67.5363 379.341 67.5363ZM387.393 65.2168C387.133 65.2168 386.894 65.0425 386.82 64.7751C386.73 64.4521 386.914 64.1169 387.231 64.0249L389.531 63.3619C389.853 63.2687 390.18 63.4587 390.271 63.7793C390.362 64.1024 390.176 64.4375 389.859 64.5295L387.559 65.1926C387.502 65.2083 387.448 65.2168 387.393 65.2168ZM391.994 63.8894C391.734 63.8894 391.494 63.7152 391.42 63.4466C391.331 63.1235 391.515 62.7883 391.833 62.6976L392.408 62.533C392.723 62.4411 393.056 62.6274 393.146 62.9517C393.235 63.2747 393.051 63.6099 392.733 63.7007L392.158 63.8652C392.104 63.8834 392.049 63.8894 391.994 63.8894ZM394.87 63.0606C394.61 63.0606 394.37 62.8863 394.296 62.6177C394.207 62.2946 394.391 61.9595 394.709 61.8687L400.461 60.2111C400.778 60.1203 401.11 60.3066 401.199 60.6297C401.289 60.9528 401.105 61.2879 400.787 61.3787L395.035 63.0364C394.98 63.0545 394.924 63.0606 394.87 63.0606ZM402.924 60.741C402.663 60.741 402.424 60.5668 402.35 60.2982C402.261 59.9751 402.444 59.6399 402.763 59.5492L405.063 58.8873C405.376 58.7954 405.711 58.9829 405.801 59.306C405.891 59.629 405.707 59.9642 405.388 60.055L403.088 60.7168C403.033 60.7338 402.977 60.741 402.924 60.741ZM407.525 59.4173C407.265 59.4173 407.025 59.2431 406.952 58.9757C406.861 58.6526 407.046 58.3174 407.363 58.2255L407.938 58.0597C408.256 57.9677 408.586 58.1553 408.677 58.4771C408.768 58.8002 408.583 59.1354 408.266 59.2273L407.691 59.3931C407.633 59.41 407.578 59.4173 407.525 59.4173ZM410.4 58.5872C410.14 58.5872 409.9 58.413 409.827 58.1444C409.737 57.8213 409.921 57.4862 410.239 57.3954L415.99 55.7389C416.306 55.647 416.639 55.8345 416.728 56.1576C416.818 56.4807 416.634 56.8158 416.316 56.9066L410.565 58.563C410.509 58.5812 410.455 58.5872 410.4 58.5872ZM418.453 56.2677C418.192 56.2677 417.953 56.0935 417.879 55.8261C417.79 55.503 417.973 55.1678 418.29 55.0759L420.591 54.4128C420.913 54.3196 421.239 54.5096 421.33 54.8302C421.42 55.1533 421.236 55.4885 420.919 55.5804L418.618 56.2435C418.563 56.2604 418.507 56.2677 418.453 56.2677ZM423.055 54.9416C422.795 54.9416 422.556 54.7673 422.482 54.4987C422.392 54.1756 422.576 53.8405 422.895 53.7497L423.469 53.5852C423.786 53.4932 424.118 53.6807 424.207 54.0038C424.297 54.3269 424.113 54.662 423.795 54.7528L423.22 54.9174C423.164 54.9355 423.109 54.9416 423.055 54.9416ZM425.929 54.1139C425.669 54.1139 425.429 53.9409 425.356 53.6723C425.265 53.3492 425.45 53.014 425.767 52.9221L425.979 52.8616C426.301 52.7708 426.627 52.9572 426.718 53.279C426.809 53.6021 426.624 53.9373 426.307 54.0292L426.095 54.0897C426.039 54.1067 425.985 54.1139 425.929 54.1139Z" fill="#FEFEFE"/>
<path d="M261.304 288.248C261.234 288.248 261.161 288.236 261.091 288.207C260.783 288.088 260.628 287.737 260.744 287.424L260.957 286.857C261.074 286.543 261.418 286.386 261.728 286.505C262.036 286.623 262.191 286.974 262.075 287.287L261.862 287.855C261.773 288.098 261.546 288.248 261.304 288.248ZM262.368 285.409C262.297 285.409 262.225 285.397 262.155 285.368C261.846 285.25 261.691 284.899 261.807 284.585L262.658 282.314C262.775 282.001 263.12 281.845 263.429 281.962C263.737 282.081 263.892 282.432 263.776 282.745L262.925 285.016C262.835 285.261 262.607 285.409 262.368 285.409ZM264.066 280.87C263.996 280.87 263.924 280.857 263.853 280.828C263.545 280.71 263.39 280.359 263.506 280.046L265.631 274.372C265.748 274.059 266.094 273.902 266.402 274.02C266.71 274.138 266.865 274.489 266.749 274.803L264.624 280.476C264.535 280.721 264.308 280.87 264.066 280.87ZM267.042 272.925C266.972 272.925 266.899 272.913 266.829 272.884C266.52 272.765 266.365 272.414 266.482 272.101L266.695 271.535C266.812 271.221 267.157 271.064 267.465 271.182C267.774 271.302 267.929 271.652 267.813 271.965L267.6 272.533C267.51 272.776 267.283 272.925 267.042 272.925ZM268.104 270.087C268.034 270.087 267.961 270.075 267.891 270.046C267.583 269.926 267.428 269.577 267.544 269.263L268.395 266.993C268.512 266.68 268.857 266.523 269.165 266.641C269.474 266.76 269.629 267.111 269.513 267.424L268.662 269.694C268.574 269.939 268.346 270.087 268.104 270.087ZM269.805 265.548C269.735 265.548 269.663 265.535 269.592 265.506C269.284 265.388 269.129 265.037 269.245 264.724L271.37 259.05C271.487 258.736 271.833 258.579 272.141 258.698C272.449 258.816 272.604 259.167 272.488 259.481L270.363 265.154C270.274 265.399 270.046 265.548 269.805 265.548ZM272.78 257.604C272.709 257.604 272.637 257.592 272.567 257.563C272.258 257.444 272.103 257.093 272.219 256.78L272.432 256.212C272.55 255.899 272.894 255.741 273.203 255.86C273.512 255.979 273.666 256.33 273.55 256.643L273.337 257.211C273.249 257.454 273.022 257.604 272.78 257.604ZM273.842 254.767C273.772 254.767 273.699 254.754 273.629 254.725C273.32 254.607 273.166 254.256 273.282 253.943L274.132 251.671C274.25 251.358 274.596 251.199 274.903 251.319C275.212 251.439 275.366 251.789 275.25 252.102L274.4 254.373C274.31 254.618 274.083 254.767 273.842 254.767ZM275.542 250.227C275.472 250.227 275.399 250.215 275.329 250.186C275.02 250.067 274.866 249.716 274.982 249.403L277.106 243.729C277.224 243.416 277.567 243.257 277.877 243.377C278.186 243.497 278.341 243.846 278.224 244.16L276.1 249.833C276.01 250.077 275.784 250.227 275.542 250.227ZM278.519 242.282C278.448 242.282 278.376 242.27 278.306 242.241C277.997 242.121 277.842 241.771 277.958 241.458L278.171 240.892C278.289 240.578 278.635 240.421 278.942 240.539C279.251 240.658 279.405 241.009 279.289 241.322L279.076 241.89C278.986 242.133 278.758 242.282 278.519 242.282ZM279.58 239.444C279.509 239.444 279.437 239.432 279.367 239.403C279.058 239.285 278.903 238.934 279.019 238.62L279.87 236.35C279.987 236.037 280.333 235.88 280.641 235.998C280.949 236.118 281.104 236.468 280.988 236.781L280.137 239.051C280.049 239.296 279.822 239.444 279.58 239.444ZM281.281 234.903C281.211 234.903 281.138 234.891 281.068 234.862C280.759 234.742 280.605 234.393 280.721 234.079L282.845 228.406C282.963 228.092 283.306 227.934 283.616 228.054C283.925 228.172 284.08 228.523 283.963 228.836L281.839 234.51C281.749 234.756 281.522 234.903 281.281 234.903ZM284.255 226.96C284.185 226.96 284.112 226.948 284.042 226.919C283.734 226.8 283.579 226.449 283.695 226.136L283.908 225.568C284.025 225.255 284.369 225.098 284.679 225.216C284.987 225.335 285.142 225.686 285.026 225.999L284.813 226.567C284.725 226.811 284.497 226.96 284.255 226.96ZM285.319 224.122C285.248 224.122 285.176 224.11 285.106 224.081C284.797 223.963 284.642 223.612 284.758 223.298L285.609 221.028C285.726 220.715 286.07 220.558 286.38 220.676C286.688 220.795 286.843 221.146 286.727 221.459L285.876 223.729C285.786 223.972 285.559 224.122 285.319 224.122ZM287.017 219.582C286.947 219.582 286.875 219.57 286.805 219.541C286.496 219.423 286.341 219.072 286.457 218.758L288.582 213.085C288.699 212.771 289.044 212.614 289.353 212.733C289.661 212.851 289.816 213.202 289.7 213.516L287.575 219.189C287.487 219.434 287.259 219.582 287.017 219.582ZM289.994 211.638C289.924 211.638 289.851 211.626 289.781 211.597C289.473 211.478 289.318 211.127 289.434 210.814L289.647 210.246C289.764 209.933 290.108 209.774 290.418 209.894C290.726 210.013 290.881 210.364 290.765 210.677L290.552 211.244C290.461 211.489 290.234 211.638 289.994 211.638ZM291.055 208.801C290.985 208.801 290.912 208.789 290.842 208.76C290.534 208.642 290.379 208.291 290.495 207.977L291.346 205.706C291.463 205.393 291.808 205.234 292.116 205.354C292.425 205.474 292.58 205.824 292.464 206.137L291.613 208.408C291.525 208.653 291.297 208.801 291.055 208.801ZM292.756 204.26C292.686 204.26 292.614 204.248 292.543 204.219C292.235 204.101 292.08 203.75 292.196 203.436L294.321 197.762C294.438 197.448 294.784 197.291 295.092 197.409C295.4 197.528 295.555 197.879 295.439 198.192L293.314 203.867C293.225 204.114 292.997 204.26 292.756 204.26ZM295.731 196.317C295.66 196.317 295.588 196.305 295.518 196.276C295.209 196.157 295.054 195.806 295.17 195.493L295.383 194.925C295.501 194.612 295.846 194.455 296.154 194.573C296.463 194.693 296.618 195.043 296.501 195.356L296.288 195.924C296.2 196.169 295.973 196.317 295.731 196.317ZM296.794 193.479C296.724 193.479 296.651 193.467 296.581 193.438C296.273 193.318 296.118 192.969 296.234 192.655L297.085 190.385C297.202 190.072 297.547 189.915 297.855 190.033C298.164 190.152 298.319 190.503 298.203 190.816L297.352 193.086C297.261 193.331 297.035 193.479 296.794 193.479ZM298.494 188.939C298.424 188.939 298.351 188.927 298.281 188.898C297.973 188.78 297.818 188.429 297.934 188.115L300.059 182.442C300.176 182.128 300.522 181.97 300.829 182.09C301.138 182.208 301.293 182.559 301.177 182.873L299.052 188.546C298.962 188.791 298.735 188.939 298.494 188.939ZM301.47 180.995C301.399 180.995 301.327 180.983 301.257 180.954C300.948 180.835 300.793 180.484 300.909 180.171L301.122 179.603C301.24 179.29 301.585 179.133 301.893 179.251C302.202 179.37 302.356 179.721 302.24 180.034L302.027 180.601C301.938 180.846 301.712 180.995 301.47 180.995ZM302.532 178.157C302.462 178.157 302.389 178.145 302.319 178.116C302.01 177.998 301.856 177.647 301.972 177.333L302.822 175.062C302.94 174.749 303.285 174.591 303.593 174.71C303.902 174.83 304.057 175.18 303.94 175.493L303.09 177.764C303 178.008 302.773 178.157 302.532 178.157ZM304.232 173.617C304.162 173.617 304.089 173.605 304.019 173.576C303.71 173.458 303.556 173.107 303.672 172.793L305.797 167.119C305.914 166.805 306.258 166.649 306.567 166.766C306.876 166.886 307.031 167.236 306.915 167.549L304.79 173.224C304.7 173.47 304.473 173.617 304.232 173.617ZM307.207 165.673C307.137 165.673 307.065 165.661 306.994 165.631C306.686 165.512 306.531 165.162 306.647 164.849L306.86 164.281C306.977 163.968 307.323 163.809 307.631 163.929C307.939 164.048 308.094 164.399 307.978 164.712L307.765 165.279C307.676 165.525 307.448 165.673 307.207 165.673ZM308.27 162.835C308.2 162.835 308.127 162.823 308.057 162.794C307.748 162.676 307.593 162.325 307.709 162.011L308.56 159.741C308.677 159.428 309.024 159.269 309.331 159.389C309.639 159.508 309.794 159.859 309.678 160.172L308.828 162.442C308.738 162.688 308.512 162.835 308.27 162.835ZM309.97 158.297C309.9 158.297 309.827 158.284 309.757 158.255C309.448 158.136 309.293 157.786 309.41 157.473L311.534 151.799C311.652 151.486 311.995 151.328 312.305 151.447C312.614 151.567 312.768 151.916 312.652 152.23L310.528 157.903C310.438 158.146 310.211 158.297 309.97 158.297ZM312.945 150.352C312.875 150.352 312.802 150.34 312.732 150.311C312.424 150.191 312.269 149.841 312.385 149.528L312.598 148.96C312.715 148.647 313.061 148.491 313.369 148.608C313.677 148.728 313.832 149.078 313.716 149.391L313.503 149.959C313.413 150.202 313.187 150.352 312.945 150.352ZM314.007 147.514C313.937 147.514 313.865 147.502 313.795 147.473C313.486 147.355 313.331 147.004 313.447 146.69L314.298 144.419C314.415 144.106 314.759 143.95 315.069 144.067C315.377 144.187 315.532 144.537 315.416 144.85L314.565 147.121C314.476 147.367 314.248 147.514 314.007 147.514ZM315.708 142.974C315.637 142.974 315.565 142.962 315.495 142.933C315.186 142.814 315.031 142.464 315.147 142.15L317.272 136.476C317.389 136.162 317.734 136.004 318.043 136.123C318.351 136.242 318.506 136.593 318.39 136.906L316.265 142.581C316.176 142.827 315.948 142.974 315.708 142.974ZM318.683 135.03C318.613 135.03 318.54 135.018 318.47 134.989C318.161 134.87 318.006 134.519 318.123 134.206L318.336 133.638C318.453 133.325 318.797 133.167 319.106 133.286C319.415 133.405 319.57 133.756 319.454 134.069L319.241 134.636C319.151 134.882 318.924 135.03 318.683 135.03ZM319.745 132.193C319.675 132.193 319.602 132.181 319.532 132.152C319.224 132.033 319.069 131.683 319.185 131.369L320.036 129.1C320.153 128.786 320.497 128.629 320.806 128.747C321.115 128.866 321.27 129.217 321.154 129.53L320.303 131.8C320.215 132.043 319.987 132.193 319.745 132.193ZM321.445 127.654C321.375 127.654 321.302 127.641 321.232 127.612C320.924 127.494 320.769 127.143 320.885 126.83L323.01 121.156C323.127 120.843 323.473 120.686 323.781 120.804C324.089 120.924 324.244 121.273 324.128 121.587L322.003 127.26C321.915 127.504 321.687 127.654 321.445 127.654ZM324.421 119.709C324.35 119.709 324.278 119.697 324.208 119.668C323.899 119.549 323.744 119.198 323.86 118.885L324.073 118.317C324.191 118.004 324.536 117.847 324.844 117.965C325.153 118.084 325.308 118.435 325.191 118.748L324.978 119.316C324.889 119.559 324.661 119.709 324.421 119.709ZM325.483 116.87C325.413 116.87 325.34 116.858 325.27 116.829C324.962 116.71 324.807 116.36 324.923 116.046L325.773 113.775C325.891 113.462 326.236 113.304 326.544 113.423C326.853 113.543 327.008 113.892 326.891 114.206L326.041 116.477C325.951 116.723 325.724 116.87 325.483 116.87ZM327.183 112.331C327.113 112.331 327.04 112.319 326.97 112.29C326.662 112.171 326.507 111.821 326.623 111.507L328.748 105.833C328.865 105.519 329.211 105.362 329.518 105.481C329.827 105.599 329.982 105.95 329.866 106.263L327.741 111.938C327.651 112.183 327.425 112.331 327.183 112.331ZM330.16 104.387C330.089 104.387 330.017 104.375 329.947 104.346C329.638 104.226 329.483 103.876 329.599 103.563L329.812 102.995C329.93 102.682 330.275 102.526 330.583 102.643C330.892 102.763 331.047 103.113 330.93 103.426L330.717 103.993C330.627 104.238 330.399 104.387 330.16 104.387ZM331.221 101.55C331.151 101.55 331.078 101.538 331.008 101.509C330.699 101.39 330.544 101.04 330.661 100.726L331.511 98.4566C331.629 98.1432 331.973 97.9871 332.282 98.1044C332.59 98.223 332.745 98.5739 332.629 98.8873L331.779 101.157C331.69 101.4 331.463 101.55 331.221 101.55ZM332.922 97.0094C332.852 97.0094 332.779 96.9973 332.709 96.9683C332.401 96.8497 332.246 96.4988 332.362 96.1854L334.487 90.5118C334.604 90.1984 334.948 90.0399 335.257 90.1597C335.566 90.2782 335.721 90.6291 335.605 90.9425L333.48 96.6162C333.39 96.8606 333.163 97.0094 332.922 97.0094ZM335.896 89.0658C335.826 89.0658 335.753 89.0537 335.683 89.0247C335.375 88.9061 335.22 88.5552 335.336 88.2418L335.549 87.6743C335.666 87.361 336.012 87.2037 336.32 87.3222C336.628 87.4408 336.783 87.7917 336.667 88.1051L336.454 88.6726C336.366 88.9158 336.138 89.0658 335.896 89.0658ZM336.96 86.2284C336.89 86.2284 336.817 86.2163 336.747 86.1873C336.438 86.0687 336.283 85.7178 336.4 85.4044L337.25 83.1333C337.368 82.8199 337.714 82.6626 338.021 82.7811C338.329 82.9009 338.484 83.2506 338.368 83.564L337.518 85.8352C337.427 86.0784 337.199 86.2284 336.96 86.2284ZM338.659 81.6885C338.588 81.6885 338.516 81.6764 338.446 81.6474C338.137 81.5288 337.982 81.1779 338.098 80.8645L340.223 75.1897C340.34 74.8763 340.684 74.7178 340.994 74.8376C341.302 74.9562 341.457 75.307 341.341 75.6204L339.216 81.2953C339.127 81.5385 338.901 81.6885 338.659 81.6885ZM341.635 73.7437C341.565 73.7437 341.492 73.7316 341.422 73.7026C341.114 73.584 340.959 73.2331 341.075 72.9197L341.288 72.3523C341.405 72.0389 341.751 71.8804 342.059 72.0001C342.367 72.1187 342.522 72.4696 342.406 72.783L342.193 73.3505C342.102 73.5937 341.875 73.7437 341.635 73.7437ZM342.696 70.9051C342.626 70.9051 342.554 70.893 342.483 70.864C342.175 70.7454 342.02 70.3945 342.136 70.0811L342.985 67.8112C343.103 67.4978 343.447 67.3393 343.756 67.4591C344.065 67.5776 344.22 67.9285 344.104 68.2419L343.254 70.5119C343.166 70.7563 342.938 70.9051 342.696 70.9051ZM344.398 66.3652C344.327 66.3652 344.255 66.3531 344.185 66.3241C343.876 66.2055 343.721 65.8546 343.837 65.5412L345.962 59.8676C346.079 59.5542 346.424 59.3969 346.733 59.5155C347.041 59.6341 347.196 59.985 347.08 60.2983L344.955 65.972C344.865 66.2176 344.637 66.3652 344.398 66.3652ZM347.372 58.4204C347.302 58.4204 347.229 58.4083 347.159 58.3793C346.85 58.2607 346.695 57.9098 346.811 57.5964L347.024 57.029C347.142 56.7156 347.485 56.5571 347.795 56.6768C348.104 56.7954 348.259 57.1463 348.142 57.4597L347.93 58.0272C347.841 58.2728 347.614 58.4204 347.372 58.4204ZM348.435 55.5842C348.365 55.5842 348.293 55.5721 348.222 55.5431C347.914 55.4245 347.759 55.0736 347.875 54.7602L348.726 52.4891C348.843 52.1757 349.187 52.0172 349.496 52.137C349.805 52.2556 349.96 52.6064 349.844 52.9198L348.993 55.191C348.902 55.4354 348.676 55.5842 348.435 55.5842ZM350.135 51.0444C350.065 51.0444 349.993 51.0323 349.922 51.0032C349.614 50.8846 349.459 50.5337 349.575 50.2204L351.7 44.5455C351.817 44.2321 352.162 44.0748 352.471 44.1934C352.779 44.312 352.934 44.6629 352.818 44.9763L350.693 50.6511C350.604 50.8943 350.376 51.0444 350.135 51.0444ZM353.109 43.0996C353.039 43.0996 352.967 43.0875 352.897 43.0584C352.588 42.9398 352.433 42.589 352.549 42.2756L352.762 41.7081C352.88 41.3947 353.224 41.2374 353.533 41.356C353.842 41.4746 353.996 41.8254 353.88 42.1388L353.667 42.7063C353.578 42.9495 353.351 43.0996 353.109 43.0996ZM354.172 40.2621C354.102 40.2621 354.029 40.25 353.959 40.221C353.65 40.1024 353.495 39.7515 353.612 39.4381L354.462 37.1682C354.58 36.8548 354.924 36.6975 355.233 36.8161C355.542 36.9347 355.696 37.2856 355.58 37.599L354.73 39.8689C354.641 40.1145 354.414 40.2621 354.172 40.2621ZM355.873 35.7223C355.803 35.7223 355.73 35.7102 355.66 35.6811C355.352 35.5625 355.197 35.2116 355.313 34.8983L357.438 29.2246C357.555 28.9112 357.901 28.7527 358.208 28.8725C358.517 28.9911 358.672 29.342 358.556 29.6554L356.431 35.329C356.341 35.5746 356.114 35.7223 355.873 35.7223Z" fill="#FEFEFE"/>
<path d="M224.671 268.645C224.438 268.645 224.215 268.505 224.119 268.273C223.991 267.963 224.135 267.607 224.44 267.479L225.415 267.064C225.721 266.933 226.071 267.08 226.197 267.389C226.325 267.699 226.181 268.055 225.876 268.183L224.901 268.598C224.826 268.631 224.748 268.645 224.671 268.645ZM227.852 267.291C227.619 267.291 227.396 267.151 227.3 266.919C227.172 266.609 227.316 266.253 227.621 266.125L233.136 263.779C233.442 263.649 233.792 263.796 233.918 264.104C234.046 264.414 233.902 264.77 233.597 264.898L228.082 267.243C228.008 267.277 227.928 267.291 227.852 267.291ZM235.573 264.009C235.339 264.009 235.117 263.868 235.021 263.636C234.893 263.326 235.037 262.97 235.342 262.842L235.894 262.607C236.201 262.477 236.549 262.623 236.675 262.933C236.804 263.243 236.66 263.598 236.355 263.727L235.803 263.961C235.728 263.994 235.65 264.009 235.573 264.009ZM238.331 262.835C238.097 262.835 237.874 262.695 237.779 262.462C237.652 262.153 237.796 261.797 238.099 261.667L240.304 260.73C240.61 260.598 240.96 260.745 241.087 261.055C241.214 261.365 241.07 261.721 240.766 261.849L238.562 262.788C238.487 262.82 238.407 262.835 238.331 262.835ZM242.742 260.958C242.509 260.958 242.286 260.818 242.19 260.586C242.062 260.276 242.206 259.92 242.511 259.792L248.026 257.446C248.332 257.317 248.682 257.463 248.808 257.771C248.936 258.081 248.792 258.437 248.487 258.565L242.972 260.91C242.897 260.943 242.818 260.958 242.742 260.958ZM250.462 257.674C250.228 257.674 250.006 257.534 249.91 257.302C249.783 256.992 249.927 256.636 250.232 256.508L250.784 256.273C251.088 256.145 251.44 256.29 251.565 256.6C251.692 256.91 251.549 257.265 251.244 257.394L250.692 257.628C250.617 257.66 250.539 257.674 250.462 257.674ZM253.219 256.501C252.986 256.501 252.763 256.36 252.668 256.128C252.541 255.818 252.685 255.463 252.988 255.333L255.194 254.395C255.5 254.267 255.85 254.411 255.977 254.722C256.104 255.031 255.96 255.386 255.656 255.516L253.451 256.453C253.374 256.486 253.297 256.501 253.219 256.501ZM257.631 254.625C257.398 254.625 257.175 254.485 257.079 254.253C256.951 253.943 257.095 253.587 257.4 253.459L262.914 251.113C263.221 250.983 263.57 251.13 263.696 251.438C263.824 251.748 263.68 252.104 263.375 252.233L257.861 254.577C257.787 254.611 257.709 254.625 257.631 254.625ZM265.351 251.341C265.117 251.341 264.895 251.201 264.799 250.969C264.672 250.659 264.816 250.303 265.121 250.175L265.673 249.94C265.978 249.811 266.329 249.956 266.454 250.267C266.581 250.577 266.437 250.932 266.133 251.061L265.581 251.295C265.507 251.326 265.428 251.341 265.351 251.341ZM268.108 250.169C267.875 250.169 267.652 250.028 267.557 249.796C267.43 249.488 267.574 249.132 267.877 249.002L270.083 248.065C270.389 247.935 270.738 248.082 270.866 248.391C270.993 248.7 270.849 249.056 270.544 249.185L268.34 250.123C268.265 250.154 268.185 250.169 268.108 250.169ZM272.52 248.292C272.287 248.292 272.064 248.152 271.968 247.919C271.841 247.61 271.985 247.254 272.289 247.124L277.804 244.78C278.11 244.648 278.46 244.795 278.586 245.105C278.714 245.415 278.57 245.771 278.265 245.9L272.75 248.244C272.675 248.278 272.597 248.292 272.52 248.292ZM280.241 245.008C280.007 245.008 279.785 244.868 279.689 244.636C279.562 244.327 279.706 243.971 280.011 243.842L280.563 243.607C280.867 243.478 281.217 243.624 281.344 243.934C281.472 244.242 281.328 244.598 281.023 244.727L280.471 244.962C280.396 244.994 280.317 245.008 280.241 245.008ZM282.999 243.835C282.765 243.835 282.542 243.694 282.447 243.462C282.32 243.152 282.464 242.796 282.769 242.667L284.973 241.729C285.281 241.601 285.629 241.746 285.756 242.055C285.883 242.364 285.739 242.72 285.434 242.85L283.23 243.787C283.153 243.82 283.075 243.835 282.999 243.835ZM287.409 241.959C287.175 241.959 286.953 241.819 286.857 241.586C286.729 241.277 286.873 240.921 287.178 240.791L292.693 238.448C292.998 238.317 293.349 238.463 293.475 238.773C293.603 239.083 293.459 239.439 293.154 239.567L287.639 241.912C287.565 241.943 287.488 241.959 287.409 241.959ZM295.13 238.674C294.896 238.674 294.674 238.534 294.578 238.301C294.451 237.993 294.595 237.637 294.9 237.507L295.452 237.273C295.755 237.144 296.108 237.288 296.233 237.599C296.36 237.908 296.216 238.264 295.912 238.393L295.36 238.628C295.286 238.659 295.207 238.674 295.13 238.674ZM297.886 237.503C297.653 237.503 297.43 237.362 297.334 237.13C297.207 236.82 297.351 236.464 297.656 236.335L299.861 235.397C300.168 235.268 300.517 235.414 300.644 235.723C300.771 236.033 300.627 236.388 300.323 236.518L298.117 237.455C298.042 237.486 297.964 237.503 297.886 237.503ZM302.299 235.626C302.066 235.626 301.843 235.486 301.747 235.253C301.619 234.944 301.763 234.588 302.068 234.46L307.583 232.115C307.89 231.983 308.239 232.13 308.365 232.44C308.493 232.75 308.349 233.106 308.044 233.234L302.529 235.579C302.454 235.611 302.375 235.626 302.299 235.626ZM310.019 232.342C309.785 232.342 309.563 232.202 309.467 231.969C309.34 231.661 309.484 231.305 309.789 231.176L310.341 230.941C310.646 230.811 310.995 230.958 311.122 231.268C311.249 231.576 311.105 231.932 310.8 232.061L310.249 232.296C310.174 232.325 310.096 232.342 310.019 232.342ZM312.776 231.17C312.543 231.17 312.32 231.029 312.225 230.797C312.096 230.487 312.24 230.131 312.545 230.003L314.751 229.064C315.057 228.934 315.406 229.081 315.533 229.39C315.661 229.699 315.517 230.055 315.212 230.183L313.006 231.122C312.931 231.155 312.853 231.17 312.776 231.17ZM317.187 229.292C316.953 229.292 316.731 229.151 316.635 228.919C316.507 228.609 316.651 228.254 316.956 228.125L322.471 225.78C322.777 225.652 323.127 225.797 323.252 226.106C323.381 226.416 323.237 226.771 322.932 226.9L317.417 229.244C317.343 229.277 317.265 229.292 317.187 229.292ZM324.908 226.009C324.674 226.009 324.452 225.869 324.356 225.636C324.228 225.328 324.372 224.972 324.677 224.843L325.228 224.608C325.533 224.477 325.884 224.625 326.01 224.933C326.138 225.242 325.994 225.599 325.689 225.727L325.138 225.962C325.064 225.994 324.985 226.009 324.908 226.009ZM327.665 224.835C327.432 224.835 327.209 224.695 327.114 224.463C326.985 224.153 327.129 223.797 327.434 223.669L329.64 222.73C329.945 222.598 330.296 222.746 330.422 223.055C330.55 223.365 330.406 223.721 330.101 223.849L327.895 224.788C327.821 224.821 327.741 224.835 327.665 224.835ZM332.077 222.96C331.843 222.96 331.621 222.819 331.525 222.587C331.397 222.277 331.541 221.922 331.846 221.793L337.361 219.448C337.667 219.319 338.017 219.465 338.144 219.774C338.271 220.084 338.127 220.439 337.823 220.568L332.308 222.913C332.232 222.943 332.154 222.96 332.077 222.96ZM339.798 219.675C339.564 219.675 339.342 219.534 339.246 219.302C339.118 218.992 339.262 218.637 339.567 218.508L340.118 218.274C340.425 218.142 340.774 218.289 340.9 218.599C341.028 218.909 340.884 219.264 340.579 219.393L340.028 219.627C339.953 219.66 339.874 219.675 339.798 219.675ZM342.554 218.502C342.321 218.502 342.098 218.362 342.002 218.13C341.874 217.82 342.018 217.464 342.323 217.336L344.529 216.397C344.836 216.265 345.185 216.413 345.311 216.722C345.439 217.032 345.295 217.388 344.99 217.516L342.784 218.455C342.709 218.488 342.632 218.502 342.554 218.502ZM346.966 216.627C346.732 216.627 346.51 216.486 346.414 216.254C346.286 215.944 346.43 215.589 346.735 215.46L352.25 213.115C352.557 212.985 352.906 213.132 353.031 213.441C353.16 213.751 353.016 214.106 352.711 214.235L347.196 216.58C347.122 216.611 347.043 216.627 346.966 216.627ZM354.686 213.342C354.452 213.342 354.229 213.201 354.134 212.969C354.006 212.659 354.149 212.303 354.454 212.175L355.006 211.94C355.314 211.81 355.662 211.956 355.788 212.266C355.916 212.576 355.772 212.931 355.467 213.06L354.915 213.294C354.842 213.327 354.764 213.342 354.686 213.342ZM357.443 212.169C357.21 212.169 356.987 212.029 356.891 211.796C356.763 211.487 356.907 211.131 357.212 211.003L359.418 210.064C359.724 209.933 360.074 210.079 360.199 210.389C360.328 210.699 360.184 211.055 359.879 211.183L357.673 212.122C357.599 212.155 357.521 212.169 357.443 212.169ZM361.855 210.292C361.621 210.292 361.399 210.152 361.303 209.92C361.175 209.61 361.319 209.254 361.624 209.126L367.139 206.781C367.445 206.649 367.795 206.797 367.92 207.107C368.049 207.416 367.905 207.772 367.6 207.9L362.085 210.246C362.01 210.278 361.932 210.292 361.855 210.292ZM369.576 207.009C369.342 207.009 369.119 206.868 369.024 206.636C368.896 206.326 369.04 205.97 369.345 205.842L369.896 205.607C370.2 205.474 370.552 205.623 370.678 205.933C370.806 206.243 370.662 206.598 370.357 206.727L369.806 206.961C369.731 206.994 369.652 207.009 369.576 207.009ZM372.333 205.835C372.1 205.835 371.877 205.694 371.781 205.462C371.653 205.152 371.797 204.797 372.102 204.668L374.308 203.729C374.615 203.598 374.964 203.745 375.09 204.055C375.218 204.365 375.074 204.72 374.769 204.849L372.563 205.788C372.488 205.82 372.411 205.835 372.333 205.835ZM376.745 203.959C376.511 203.959 376.289 203.819 376.193 203.587C376.065 203.277 376.209 202.921 376.514 202.793L382.028 200.448C382.334 200.317 382.683 200.464 382.809 200.773C382.938 201.083 382.794 201.439 382.489 201.567L376.975 203.913C376.9 203.944 376.822 203.959 376.745 203.959ZM384.465 200.674C384.231 200.674 384.008 200.534 383.913 200.302C383.785 199.992 383.929 199.636 384.233 199.508L384.785 199.273C385.089 199.141 385.44 199.289 385.567 199.599C385.695 199.908 385.551 200.264 385.246 200.392L384.694 200.627C384.619 200.66 384.542 200.674 384.465 200.674ZM387.222 199.504C386.989 199.504 386.766 199.364 386.67 199.131C386.542 198.822 386.686 198.466 386.991 198.338L389.197 197.399C389.503 197.268 389.853 197.416 389.978 197.724C390.107 198.034 389.963 198.39 389.658 198.518L387.452 199.457C387.378 199.487 387.298 199.504 387.222 199.504ZM391.634 197.626C391.4 197.626 391.178 197.486 391.082 197.254C390.954 196.944 391.098 196.588 391.403 196.46L396.918 194.115C397.224 193.983 397.574 194.131 397.699 194.44C397.828 194.75 397.684 195.106 397.379 195.234L391.864 197.58C391.789 197.612 391.711 197.626 391.634 197.626ZM399.353 194.344C399.12 194.344 398.897 194.203 398.802 193.971C398.673 193.661 398.817 193.305 399.122 193.177L399.674 192.942C399.979 192.812 400.33 192.958 400.456 193.268C400.584 193.578 400.44 193.933 400.135 194.062L399.583 194.296C399.508 194.327 399.431 194.344 399.353 194.344ZM402.111 193.17C401.878 193.17 401.655 193.03 401.559 192.797C401.431 192.487 401.575 192.132 401.88 192.003L404.086 191.065C404.392 190.933 404.742 191.08 404.867 191.39C404.996 191.7 404.852 192.055 404.547 192.184L402.341 193.123C402.266 193.155 402.188 193.17 402.111 193.17ZM406.523 191.292C406.289 191.292 406.066 191.152 405.971 190.919C405.843 190.61 405.987 190.254 406.292 190.126L411.807 187.781C412.113 187.649 412.462 187.796 412.588 188.106C412.717 188.416 412.573 188.772 412.268 188.9L406.753 191.246C406.679 191.277 406.6 191.292 406.523 191.292ZM414.242 188.009C414.009 188.009 413.786 187.869 413.691 187.637C413.562 187.328 413.706 186.972 414.011 186.843L414.563 186.608C414.868 186.476 415.219 186.624 415.345 186.934C415.473 187.242 415.329 187.599 415.024 187.727L414.472 187.962C414.4 187.995 414.321 188.009 414.242 188.009ZM417 186.836C416.766 186.836 416.544 186.695 416.448 186.463C416.32 186.153 416.464 185.797 416.769 185.669L418.975 184.73C419.282 184.6 419.63 184.746 419.756 185.056C419.885 185.365 419.741 185.721 419.436 185.849L417.23 186.788C417.156 186.821 417.079 186.836 417 186.836ZM421.413 184.959C421.179 184.959 420.957 184.819 420.861 184.586C420.733 184.276 420.877 183.921 421.182 183.792L426.697 181.447C427.002 181.317 427.353 181.463 427.48 181.773C427.607 182.083 427.463 182.438 427.159 182.567L421.644 184.913C421.566 184.944 421.489 184.959 421.413 184.959ZM429.133 181.675C428.899 181.675 428.676 181.535 428.581 181.302C428.452 180.994 428.596 180.637 428.901 180.509L429.453 180.274C429.757 180.143 430.109 180.29 430.235 180.599C430.363 180.908 430.219 181.265 429.914 181.393L429.362 181.628C429.287 181.66 429.21 181.675 429.133 181.675ZM431.89 180.504C431.657 180.504 431.434 180.363 431.338 180.131C431.211 179.821 431.355 179.466 431.659 179.336L433.865 178.398C434.168 178.269 434.519 178.415 434.646 178.724C434.773 179.034 434.629 179.389 434.326 179.519L432.12 180.457C432.045 180.487 431.966 180.504 431.89 180.504ZM436.3 178.626C436.067 178.626 435.844 178.485 435.749 178.253C435.62 177.943 435.764 177.588 436.069 177.459L441.584 175.114C441.892 174.986 442.24 175.131 442.367 175.44C442.494 175.75 442.35 176.105 442.047 176.234L436.532 178.58C436.457 178.611 436.379 178.626 436.3 178.626ZM444.021 175.343C443.788 175.343 443.565 175.203 443.47 174.97C443.341 174.662 443.485 174.305 443.79 174.177L444.342 173.942C444.645 173.81 444.998 173.958 445.124 174.267C445.252 174.576 445.108 174.933 444.803 175.061L444.251 175.296C444.177 175.329 444.099 175.343 444.021 175.343ZM446.778 174.169C446.544 174.169 446.322 174.029 446.226 173.797C446.099 173.487 446.243 173.131 446.547 173.002L448.752 172.064C449.055 171.936 449.407 172.081 449.534 172.39C449.661 172.699 449.517 173.055 449.213 173.184L447.008 174.122C446.934 174.155 446.856 174.169 446.778 174.169ZM451.191 172.292C450.957 172.292 450.734 172.151 450.639 171.919C450.511 171.609 450.655 171.253 450.959 171.125L456.475 168.779C456.781 168.648 457.129 168.795 457.257 169.104C457.385 169.414 457.241 169.77 456.937 169.898L451.422 172.244C451.345 172.277 451.267 172.292 451.191 172.292ZM458.91 169.009C458.677 169.009 458.454 168.868 458.359 168.636C458.23 168.328 458.374 167.971 458.679 167.842L459.231 167.608C459.536 167.476 459.887 167.623 460.013 167.933C460.141 168.242 459.997 168.599 459.692 168.727L459.14 168.962C459.066 168.994 458.988 169.009 458.91 169.009ZM461.668 167.835C461.434 167.835 461.212 167.695 461.116 167.462C460.989 167.153 461.133 166.797 461.437 166.667L463.643 165.73C463.947 165.6 464.297 165.747 464.424 166.055C464.551 166.365 464.407 166.721 464.104 166.85L461.898 167.788C461.823 167.821 461.745 167.835 461.668 167.835ZM466.08 165.961C465.846 165.961 465.623 165.82 465.528 165.588C465.401 165.278 465.545 164.923 465.848 164.793L471.364 162.447C471.668 162.318 472.019 162.464 472.146 162.773C472.273 163.082 472.129 163.438 471.826 163.568L466.311 165.912C466.234 165.944 466.157 165.961 466.08 165.961Z" fill="#FEFEFE"/>
<path d="M322.185 42.2083C322.131 42.2083 322.074 42.201 322.018 42.1841C321.701 42.0909 321.52 41.7545 321.612 41.4314C326.32 24.9901 338.929 10.728 354.52 4.21098C370.109 -2.30723 388.952 -1.19646 403.695 7.11375C403.983 7.27588 404.088 7.64614 403.927 7.93896C403.768 8.23177 403.403 8.33825 403.114 8.1749C388.683 0.0425715 370.235 -1.04763 354.975 5.33506C339.712 11.7153 327.369 25.6786 322.76 41.7714C322.684 42.0352 322.445 42.2083 322.185 42.2083Z" fill="#653F3F"/>
<path d="M266.134 340.452C265.872 340.452 265.631 340.275 265.558 340.004C265.471 339.68 265.659 339.346 265.978 339.259C288.876 332.919 306.481 310.853 307.837 286.79C307.856 286.455 308.144 286.199 308.468 286.22C308.797 286.24 309.049 286.526 309.03 286.862C307.645 311.429 289.671 333.958 266.292 340.431C266.24 340.445 266.186 340.452 266.134 340.452Z" fill="#653F3F"/>
<path d="M477.583 74.3584H459.629V92.5893H477.583V74.3584Z" fill="#734D5B"/>
<path d="M197.722 154.719C197.823 154.602 197.815 154.492 197.699 154.39C197.583 154.289 197.475 154.296 197.375 154.413C197.274 154.531 197.282 154.641 197.398 154.742C197.514 154.845 197.614 154.727 197.722 154.719ZM202.43 131.895C202.538 131.888 202.638 131.77 202.631 131.661C202.624 131.552 202.508 131.449 202.4 131.456C202.292 131.463 202.192 131.582 202.199 131.691C202.107 131.918 202.33 132.012 202.43 131.895ZM199.313 143.252C199.421 143.245 199.53 143.237 199.63 143.119C199.623 143.01 199.615 142.899 199.5 142.797C199.392 142.805 199.283 142.813 199.183 142.931C199.089 143.157 199.204 143.258 199.313 143.252ZM224.729 159.066C224.953 159.16 225.161 159.034 225.254 158.808C225.347 158.58 225.223 158.369 225 158.274C224.776 158.18 224.568 158.306 224.475 158.532C224.274 158.768 224.512 159.081 224.729 159.066ZM214.764 156.255C214.987 156.349 215.196 156.223 215.289 155.997C215.382 155.77 215.257 155.558 215.035 155.464C214.812 155.369 214.603 155.495 214.509 155.721C214.416 155.948 214.54 156.158 214.764 156.255ZM204.79 153.332C205.013 153.426 205.222 153.3 205.315 153.074C205.408 152.846 205.283 152.635 205.061 152.54C204.837 152.446 204.629 152.572 204.536 152.798C204.444 153.025 204.566 153.237 204.79 153.332ZM210.744 176.493C210.837 176.266 210.821 176.045 210.698 175.835C210.474 175.741 210.258 175.756 210.049 175.882C209.956 176.11 209.972 176.33 210.088 176.431C210.327 176.745 210.543 176.729 210.744 176.493ZM202.586 170.025C202.679 169.797 202.664 169.577 202.54 169.366C202.316 169.272 202.1 169.288 201.892 169.414C201.799 169.641 201.814 169.861 201.93 169.963C202.162 170.166 202.486 170.142 202.586 170.025ZM221.644 138.123C221.86 138.107 222.061 137.873 222.045 137.654C222.03 137.435 221.798 137.23 221.583 137.246C221.366 137.262 221.166 137.496 221.181 137.715C221.197 137.934 221.428 138.139 221.644 138.123ZM211.305 139.305C211.522 139.29 211.723 139.055 211.707 138.836C211.691 138.617 211.46 138.412 211.245 138.428C211.028 138.444 210.827 138.679 210.843 138.898C210.858 139.118 211.089 139.322 211.305 139.305ZM201.074 140.479C201.29 140.463 201.491 140.229 201.475 140.01C201.46 139.789 201.229 139.586 201.013 139.602C200.797 139.618 200.596 139.852 200.612 140.071C200.635 140.4 200.858 140.495 201.074 140.479ZM204.234 184.346C204.335 184.229 204.419 183.891 204.196 183.797C204.079 183.695 203.748 183.609 203.655 183.835C203.554 183.953 203.47 184.29 203.693 184.385C203.817 184.598 204.033 184.582 204.234 184.346ZM218.08 147.749C218.297 147.733 218.505 147.607 218.489 147.387C218.473 147.167 218.358 147.065 218.133 146.972C217.917 146.988 217.709 147.113 217.724 147.334C217.741 147.553 217.865 147.764 218.08 147.749ZM208.868 147.968C209.085 147.952 209.293 147.826 209.277 147.606C209.262 147.386 209.147 147.284 208.922 147.191C208.705 147.207 208.497 147.332 208.513 147.553C208.528 147.773 208.652 147.985 208.868 147.968ZM199.648 148.079C199.865 148.063 200.073 147.937 200.057 147.717C200.042 147.497 199.927 147.395 199.702 147.302C199.485 147.318 199.277 147.444 199.293 147.664C199.317 147.993 199.433 148.094 199.648 148.079ZM209.941 166.52C210.164 166.615 210.373 166.489 210.466 166.263C210.559 166.035 210.434 165.823 210.212 165.729C209.989 165.635 209.78 165.761 209.686 165.987C209.594 166.214 209.725 166.536 209.941 166.52ZM201.35 163.17C201.573 163.264 201.782 163.139 201.882 163.021C201.975 162.794 201.851 162.582 201.628 162.488C201.404 162.393 201.196 162.519 201.103 162.745C201.002 162.863 201.126 163.073 201.35 163.17ZM209.839 130.701C210.047 130.575 210.147 130.458 210.024 130.246C209.901 130.034 209.677 129.94 209.576 130.059C209.368 130.184 209.275 130.411 209.398 130.622C209.398 130.624 209.622 130.717 209.839 130.701ZM201.41 134.393C201.618 134.267 201.711 134.041 201.588 133.829C201.465 133.617 201.241 133.523 201.033 133.649C200.824 133.775 200.731 134.001 200.847 134.104C200.979 134.424 201.202 134.517 201.41 134.393C201.302 134.4 201.41 134.393 201.41 134.393ZM213.729 186.643C213.953 186.737 214.161 186.611 214.254 186.385C214.347 186.157 214.223 185.946 214 185.851C213.776 185.757 213.568 185.883 213.475 186.109C213.383 186.336 213.505 186.548 213.729 186.643ZM203.802 182.835C204.026 182.929 204.234 182.803 204.327 182.577C204.421 182.35 204.296 182.138 204.073 182.043C203.849 181.949 203.641 182.075 203.548 182.301C203.448 182.42 203.578 182.74 203.802 182.835ZM212.84 141.071C213.048 140.945 213.141 140.719 213.018 140.507C212.894 140.295 212.67 140.201 212.462 140.327C212.254 140.452 212.161 140.679 212.284 140.89C212.299 141.107 212.63 141.194 212.84 141.071ZM203.052 145.52C203.26 145.394 203.353 145.168 203.23 144.956C203.107 144.744 202.883 144.65 202.675 144.776C202.466 144.902 202.373 145.128 202.497 145.34C202.614 145.44 202.844 145.643 203.052 145.52ZM212.743 164.666C212.959 164.65 213.16 164.415 213.145 164.196C213.129 163.976 212.898 163.773 212.682 163.788C212.466 163.804 212.265 164.039 212.281 164.258C212.295 164.478 212.527 164.682 212.743 164.666ZM202.126 164.986C202.343 164.97 202.544 164.736 202.528 164.517C202.512 164.296 202.281 164.093 202.066 164.109C201.849 164.125 201.648 164.359 201.664 164.578C201.68 164.799 201.803 165.01 202.126 164.986ZM214.759 171.797C214.975 171.781 215.176 171.547 215.16 171.328C215.145 171.108 214.914 170.904 214.698 170.92C214.483 170.936 214.274 171.062 214.296 171.389C214.311 171.61 214.542 171.813 214.759 171.797ZM204.112 171.679C204.329 171.663 204.529 171.428 204.514 171.209C204.498 170.989 204.375 170.778 204.052 170.801C203.835 170.817 203.634 171.052 203.542 171.278C203.664 171.49 203.897 171.694 204.112 171.679ZM205.626 151.288C205.834 151.162 205.927 150.936 205.911 150.717C205.788 150.505 205.564 150.411 205.349 150.426C205.141 150.552 205.047 150.778 205.063 150.997C205.076 151.215 205.409 151.301 205.626 151.288Z" fill="#6E3FAF"/>
<path d="M465.966 253.357C466.184 253.377 466.304 253.276 466.322 253.055C466.341 252.833 466.243 252.712 466.024 252.692C465.806 252.672 465.687 252.773 465.668 252.994C465.649 253.216 465.866 253.235 465.966 253.357ZM495.963 239.806C496.062 239.927 496.28 239.948 496.4 239.848C496.518 239.747 496.539 239.526 496.44 239.404C496.34 239.283 496.123 239.262 496.003 239.362C495.665 239.443 495.745 239.786 495.963 239.806ZM480.389 245.636C480.488 245.757 480.588 245.878 480.805 245.896C480.924 245.796 481.044 245.694 481.062 245.474C480.963 245.353 480.864 245.232 480.646 245.214C480.308 245.295 480.29 245.515 480.389 245.636ZM483.594 288.786C483.674 289.128 483.991 289.268 484.329 289.187C484.667 289.106 484.804 288.784 484.725 288.442C484.645 288.1 484.328 287.959 483.99 288.04C483.553 288 483.396 288.545 483.594 288.786ZM478.47 274.7C478.55 275.043 478.867 275.183 479.205 275.102C479.542 275.021 479.68 274.699 479.6 274.357C479.52 274.014 479.203 273.874 478.866 273.955C478.528 274.036 478.389 274.358 478.47 274.7ZM473.463 260.514C473.543 260.857 473.86 260.997 474.198 260.916C474.535 260.835 474.673 260.513 474.593 260.171C474.513 259.828 474.196 259.688 473.859 259.769C473.522 259.851 473.385 260.174 473.463 260.514ZM451.999 286.899C452.337 286.818 452.573 286.617 452.712 286.294C452.632 285.952 452.435 285.711 452.117 285.571C451.779 285.652 451.543 285.853 451.522 286.074C451.364 286.617 451.562 286.858 451.999 286.899ZM452.561 271.883C452.898 271.802 453.134 271.601 453.273 271.278C453.193 270.936 452.996 270.695 452.678 270.555C452.34 270.636 452.104 270.837 452.084 271.058C452.045 271.502 452.344 271.864 452.561 271.883ZM504.924 267.635C505.123 267.877 505.559 267.917 505.795 267.715C506.034 267.513 506.072 267.07 505.874 266.83C505.676 266.588 505.239 266.548 505.003 266.751C504.766 266.95 504.726 267.394 504.924 267.635ZM494.926 256.452C495.124 256.694 495.561 256.734 495.797 256.532C496.036 256.33 496.074 255.887 495.876 255.648C495.677 255.406 495.241 255.366 495.005 255.568C494.766 255.767 494.728 256.21 494.926 256.452ZM485.026 245.391C485.224 245.633 485.661 245.673 485.897 245.47C486.135 245.268 486.174 244.826 485.976 244.586C485.777 244.344 485.34 244.304 485.105 244.506C484.749 244.807 484.829 245.149 485.026 245.391ZM437.588 285.803C437.806 285.822 438.261 285.642 438.182 285.3C438.202 285.078 438.024 284.616 437.686 284.696C437.468 284.676 437.013 284.857 437.092 285.199C436.954 285.523 437.153 285.764 437.588 285.803ZM490.954 271.49C491.152 271.732 491.469 271.872 491.707 271.67C491.946 271.468 491.964 271.248 491.885 270.904C491.687 270.662 491.37 270.522 491.131 270.724C490.893 270.926 490.755 271.248 490.954 271.49ZM482.997 260.829C483.195 261.071 483.512 261.211 483.751 261.009C483.989 260.807 484.007 260.587 483.928 260.243C483.73 260.001 483.413 259.861 483.175 260.063C482.937 260.266 482.798 260.588 482.997 260.829ZM475.16 250.068C475.358 250.31 475.675 250.451 475.913 250.249C476.152 250.047 476.17 249.826 476.091 249.483C475.893 249.241 475.576 249.1 475.337 249.302C474.981 249.605 474.961 249.828 475.16 250.068ZM462.714 277.613C462.792 277.955 463.111 278.095 463.448 278.014C463.786 277.933 463.924 277.611 463.844 277.269C463.765 276.927 463.447 276.786 463.109 276.867C462.773 276.947 462.515 277.371 462.714 277.613ZM459.355 264.694C459.435 265.036 459.752 265.176 459.969 265.196C460.307 265.115 460.445 264.793 460.365 264.45C460.285 264.108 459.968 263.968 459.631 264.049C459.413 264.028 459.275 264.35 459.355 264.694ZM503.521 247.529C503.838 247.67 504.057 247.688 504.193 247.368C504.332 247.046 504.251 246.703 504.035 246.684C503.718 246.542 503.38 246.625 503.242 246.945C503.243 246.945 503.322 247.289 503.521 247.529ZM492.258 240.695C492.575 240.836 492.913 240.754 493.05 240.433C493.188 240.113 493.109 239.769 492.793 239.629C492.476 239.487 492.138 239.569 492.12 239.79C491.861 240.213 491.94 240.554 492.258 240.695C492.159 240.575 492.258 240.695 492.258 240.695ZM442.91 298.902C442.99 299.245 443.307 299.385 443.644 299.304C443.982 299.223 444.12 298.901 444.04 298.559C443.96 298.216 443.643 298.076 443.305 298.157C442.97 298.237 442.831 298.561 442.91 298.902ZM438.954 284.033C439.033 284.375 439.351 284.516 439.689 284.434C440.026 284.353 440.164 284.032 440.084 283.689C440.005 283.347 439.688 283.206 439.35 283.287C439.133 283.267 438.874 283.689 438.954 284.033ZM494.195 259.734C494.512 259.875 494.85 259.793 494.988 259.472C495.127 259.151 495.046 258.808 494.73 258.668C494.413 258.526 494.075 258.609 493.937 258.929C493.699 259.131 493.878 259.592 494.195 259.734ZM480.929 251.934C481.246 252.076 481.583 251.993 481.721 251.673C481.859 251.352 481.779 251.009 481.464 250.868C481.147 250.727 480.809 250.809 480.671 251.13C480.651 251.352 480.611 251.794 480.929 251.934ZM467.176 279.36C467.375 279.602 467.811 279.642 468.047 279.44C468.286 279.238 468.324 278.795 468.126 278.555C467.927 278.313 467.491 278.273 467.255 278.475C467.016 278.674 466.978 279.118 467.176 279.36ZM457.929 267.129C458.128 267.371 458.565 267.411 458.801 267.209C459.039 267.007 459.078 266.564 458.879 266.325C458.681 266.083 458.244 266.043 458.008 266.245C457.77 266.446 457.632 266.769 457.929 267.129ZM460.721 287.697C460.919 287.939 461.356 287.979 461.592 287.776C461.83 287.574 461.869 287.132 461.671 286.892C461.472 286.65 461.155 286.51 460.799 286.812C460.561 287.013 460.522 287.456 460.721 287.697ZM451.95 275.064C452.148 275.306 452.585 275.346 452.821 275.144C453.059 274.942 453.197 274.62 452.899 274.26C452.701 274.018 452.264 273.978 451.929 274.059C451.791 274.379 451.751 274.824 451.95 275.064ZM476.495 259.788C476.812 259.93 477.15 259.848 477.387 259.645C477.526 259.324 477.445 258.981 477.247 258.74C476.93 258.599 476.592 258.681 476.355 258.883C476.118 259.084 476.297 259.547 476.495 259.788Z" fill="#6E3FAF"/>
<path d="M45.2312 326.861L54.1828 335.255L65.5125 345.878C66.1787 345.895 66.8108 345.916 67.3837 345.933C68.8538 345.977 69.9157 346.015 70.0525 346.026L70.0237 345.605L69.9421 344.41L69.3077 335.016L68.5949 324.48L68.1207 324.387C67.393 324.245 66.6771 324.672 66.4532 325.375L65.8157 327.393L62.064 326.035C59.5235 325.12 57.7277 322.832 57.4424 320.148L57.0001 316.002C56.9247 315.278 56.04 314.962 55.5184 315.473L50.4956 320.419L46.9601 323.902L46.6546 324.202L45.2312 326.861Z" fill="#DE1250"/>
<path d="M46.7607 331.98L55.3112 339.792L61.8506 345.77C63.0556 345.805 64.3329 345.84 65.5114 345.877C66.1776 345.894 66.8096 345.915 67.3826 345.932L57.8922 337.257C57.6131 337.001 57.4444 336.646 57.4211 336.268C57.3659 335.321 57.1272 334.399 56.7253 333.555C56.3234 332.712 55.7621 331.945 55.0578 331.302L52.6541 329.105L46.9589 323.9L46.8167 323.769C46.3456 323.339 45.5829 323.546 45.3933 324.156L44.9914 325.453C44.2668 327.788 44.9564 330.329 46.7607 331.98Z" fill="#98113D"/>
<path d="M53.8326 333.85L55.867 342.031L56.7112 345.436L70.0225 345.604L79.827 345.729H79.8503L80.0019 345.63L81.8816 344.41L82.9816 343.694C83.8461 343.133 84.3669 342.174 84.3669 341.145C84.3669 340.389 84.0879 339.691 83.6222 339.153C83.1565 338.618 82.502 338.243 81.7541 338.136L75.1393 337.191C73.038 336.891 71.0502 336.139 69.3073 335.016C67.5846 333.906 66.0944 332.429 64.9594 330.667L62.2237 326.42L59.6078 328.019C58.9766 328.403 58.7348 329.199 59.0465 329.871L59.9366 331.79L56.2526 333.319C55.4682 333.643 54.6473 333.821 53.8326 333.85Z" fill="#DE1250"/>
<path d="M61.4902 344.409V348.02H74.9881C75.4887 348.02 75.9808 347.892 76.4169 347.648L79.8273 345.729L80.0022 345.63L81.9177 344.409H61.4902Z" fill="#98113D"/>
<path d="M72.1189 356.063L58.8162 356.022L56.4677 344.142L69.8085 345.671L71.4177 348.643C71.8779 349.492 72.1189 350.444 72.1189 351.41V356.063Z" fill="#99644C"/>
<path d="M81.9496 194.587L105.1 271.273C106.186 274.871 105.465 278.772 103.164 281.745L66.6715 328.9L58.669 312.33L73.5118 278.475C73.8321 277.745 74.2114 277.043 74.6468 276.375L80.2036 267.85L47.9014 216.829L53.5763 185.867L81.9496 194.587Z" fill="#1F1F1F"/>
<path d="M36.7404 186.156L35.8449 188.107C33.25 193.762 33.0214 200.216 35.2098 206.04L36.5655 209.648L46.3412 268.842C46.3412 268.842 65.7146 264.585 65.7146 264.207L65.4892 186.958L36.7404 186.156Z" fill="#1F1F1F"/>
<path d="M70.0516 346.026V346.029C70.0724 346.029 70.0692 346.026 70.0516 346.026Z" fill="#29ABE2"/>
<path d="M44.1545 294.918L50.4957 320.418L52.6552 329.106L53.8338 333.851L54.1828 335.255L55.3124 339.794L55.8682 342.033L56.7124 345.437L56.7622 345.632C56.7622 345.632 59.1192 345.696 61.8518 345.772C63.0567 345.807 64.334 345.842 65.5125 345.879C66.1787 345.896 66.8108 345.917 67.3837 345.934C68.8538 345.978 69.9157 346.016 70.0525 346.027L70.0237 345.606L69.9421 344.411L69.3077 335.017L68.5949 324.481L66.185 288.936L65.8009 262.304L46.192 261.72L43.7767 290.186C43.6422 291.772 43.7704 293.371 44.1545 294.918Z" fill="#1F1F1F"/>
<path d="M75.4141 358.989H57.7712L56.7381 356.111C55.9032 353.786 55.6754 351.287 56.0765 348.849L56.6067 345.622L64.2034 341.345L71.8467 345.622L75.6668 351.656C76.2662 352.603 76.5771 353.704 76.5616 354.825L76.518 357.901C76.5103 358.504 76.0182 358.989 75.4141 358.989Z" fill="#DE1250"/>
<path d="M73.4572 363H60.5525C59.8256 363 59.1788 362.603 58.9448 362.013L57.6388 358.722H76.3708L75.0648 362.013C74.8308 362.603 74.184 363 73.4572 363Z" fill="#98113D"/>
<path d="M66.9426 339.694H59.1485C58.3446 339.694 57.8246 340.344 57.9855 341.147L59.4975 348.667C59.6592 349.47 60.4413 350.121 61.2451 350.121H69.04C69.8438 350.121 70.3639 349.47 70.203 348.667L68.6909 341.147C68.5292 340.344 67.7464 339.694 66.9426 339.694Z" fill="#DE1250"/>
<path d="M65.6683 356.583H68.3441C69.448 356.583 70.3513 357.485 70.3513 358.588C70.3513 359.691 69.448 360.593 68.3441 360.593H65.6683C64.5644 360.593 63.6611 359.691 63.6611 358.588C63.6611 357.485 64.5644 356.583 65.6683 356.583Z" fill="#98113D"/>
<path opacity="0.1" d="M52.9184 128.729L56.5348 132.244H51.3884V129.375C51.3884 128.578 52.347 128.174 52.9184 128.729Z" fill="#1D2445"/>
<path d="M49.2321 115.442L65.3591 115.452L65.3397 148.396C65.3389 149.882 63.4514 150.519 62.5489 149.338L49.2205 131.888L49.2321 115.442Z" fill="#ED956E"/>
<path d="M49.972 107.809L68.652 101.097C66.9192 96.2841 62.0076 93.3819 56.9515 94.1818L51.8712 94.9856C48.6707 95.4919 46.7218 98.7833 47.8187 101.829L49.972 107.809Z" fill="#002652"/>
<path d="M56.9828 100.444L58.5026 104.665L62.2683 103.312L67.3525 117.432L68.765 116.925L71.8357 103.891L65.842 97.0117L56.9828 100.444Z" fill="#002652"/>
<path d="M66.5705 103.175L72.4856 119.308C73.1262 121.237 71.6989 123.229 69.6645 123.246L50.7995 123.403L66.5705 103.175Z" fill="#ED956E"/>
<path d="M68.7074 113.472L71.548 112.373C72.732 111.916 72.8027 110.27 71.663 109.711L66.6761 107.27L68.7074 113.472Z" fill="#ED956E"/>
<path d="M53.3901 96.5048L53.0177 96.6283C51.4458 97.1494 50.5938 98.844 51.1154 100.414L54.3929 110.288L67.572 105.922L66.6539 103.157C64.8302 97.6604 58.8917 94.682 53.3901 96.5048Z" fill="#C78982"/>
<path d="M70.4555 114.526L62.1932 117.263L58.7099 106.77L66.9721 104.033L70.4555 114.526Z" fill="#C78982"/>
<path d="M49.1792 95.728L45.3023 97.1212C41.0655 98.6434 38.8671 103.309 40.3907 107.541L43.8812 117.237C45.7633 122.463 51.5292 125.176 56.7611 123.296L71.9451 117.839L67.0032 104.113C64.3989 96.8813 56.419 93.1271 49.1792 95.728Z" fill="#ED956E"/>
<path opacity="0.07" d="M67.6467 106.058L65.77 106.732C65.5524 106.81 65.3744 106.972 65.2756 107.182L64.7758 108.243C64.4446 108.946 65.1295 109.699 65.8618 109.435L68.3883 108.482" fill="#002652"/>
<path opacity="0.07" d="M69.6338 116.336L71.3044 116.137L70.6685 114.37L68.1412 114.719C67.6204 114.907 68.24 115.247 68.7849 115.716C68.7849 115.716 68.9435 115.874 69.092 116C69.2731 116.155 69.3975 116.363 69.6338 116.336Z" fill="#002652"/>
<path d="M59.4693 94.2842L62.5959 102.968C63.2039 104.656 62.327 106.517 60.6369 107.124L57.5522 108.232C55.9197 108.819 55.0716 110.617 55.6593 112.248L58.2659 119.489C58.7945 120.958 58.0319 122.577 56.5611 123.106C55.8552 123.36 55.0762 123.323 54.3976 123.004L40.2374 116.342C39.4522 115.973 39.1156 115.038 39.4856 114.253L43.993 101.728C45.3542 97.946 48.7801 95.2907 52.7853 94.9132L59.4693 94.2842Z" fill="#002652"/>
<path d="M49.8161 95.4912L41.142 98.6086C36.6284 100.231 34.2861 105.201 35.9093 109.71L41.1956 124.392C41.4273 125.035 42.0772 125.431 42.7566 125.341L57.3995 123.408C58.6115 123.248 59.3656 122.011 58.952 120.863L49.8161 95.4912Z" fill="#002652"/>
<path d="M51.1811 110.005L51.4346 109.914C53.3773 109.216 55.519 110.223 56.2179 112.165L58.6558 118.937L55.2205 118.229C53.8173 117.94 52.6178 117.037 51.9531 115.769L50.2211 112.464C49.729 111.523 50.1814 110.364 51.1811 110.005Z" fill="#ED956E"/>
<path d="M157.576 103.105L156.208 102.166C155.404 101.613 154.406 102.526 154.885 103.375L156.227 105.751L157.302 107.656C157.793 108.372 158.616 108.668 159.278 108.427C159.278 108.427 159.284 108.434 159.291 108.429C159.51 108.318 159.6 108.052 159.495 107.827L157.576 103.105Z" fill="#ED956E"/>
<path d="M162.3 101.504L163.43 105.855L163.75 107.085C163.84 107.321 163.713 107.571 163.477 107.66C163.471 107.653 163.471 107.653 163.464 107.658C162.777 107.812 162.004 107.403 161.609 106.63L159.622 101.711C159.281 100.867 160.245 100.093 160.997 100.609L162.3 101.504Z" fill="#ED956E"/>
<path d="M159.937 101.349L160.285 102.711L161.718 108.185C161.802 108.414 161.674 108.677 161.438 108.754C161.438 108.754 161.438 108.754 161.425 108.752C160.739 108.906 159.958 108.503 159.571 107.724L157.013 101.391C156.671 100.546 157.635 99.7735 158.387 100.29L159.665 101.168L159.937 101.349Z" fill="#ED956E"/>
<path opacity="0.1" d="M157.576 103.105L156.208 102.166C155.404 101.613 154.406 102.526 154.885 103.375L156.227 105.751L157.302 107.656C157.793 108.372 158.616 108.668 159.278 108.427C159.278 108.427 159.284 108.434 159.291 108.429C159.51 108.318 159.6 108.052 159.495 107.827L157.576 103.105Z" fill="#1D2445"/>
<path opacity="0.1" d="M162.3 101.504L163.43 105.855L163.75 107.085C163.84 107.321 163.713 107.571 163.477 107.66C163.471 107.653 163.471 107.653 163.464 107.658C162.777 107.812 162.004 107.403 161.609 106.63L158.945 100.033C158.805 99.6895 159.198 99.375 159.504 99.5847L162.3 101.504Z" fill="#1D2445"/>
<path opacity="0.1" d="M159.937 101.349L160.285 102.711L161.718 108.185C161.802 108.414 161.674 108.677 161.438 108.754C161.438 108.754 161.438 108.754 161.425 108.752C160.739 108.906 159.958 108.503 159.571 107.724L157.013 101.391C156.671 100.546 157.635 99.7735 158.387 100.29L159.665 101.168L159.937 101.349Z" fill="#1D2445"/>
<path d="M150.573 100.775L157.069 99.8373C157.772 99.7348 158.462 99.5577 159.125 99.3077L160.477 98.8005L163.203 100.799L156.192 107.31C155.616 107.785 155.535 108.636 156.01 109.211C156.163 109.397 156.362 109.537 156.588 109.62L162.237 111.661C162.88 111.838 163.257 112.502 163.078 113.145C163.07 113.177 163.06 113.208 163.048 113.238C162.939 113.51 162.654 113.67 162.364 113.622L149.282 112.057L149.286 112.043C146.768 111.783 139.358 116.079 137.917 113.999L135.925 109.926C135.925 109.926 143.159 106.08 145.478 104.222C147.591 102.53 149.808 100.886 150.573 100.775Z" fill="#ED956E"/>
<path d="M170.91 93.207C171.25 93.8415 171.067 94.7206 170.412 95.3163L159.762 103.547L155.796 101.553L170.264 93.0812C170.473 92.9375 170.759 92.9895 170.903 93.1977L170.91 93.207Z" fill="#ED956E"/>
<path opacity="0.07" d="M65.3533 123.266H64.1934C62.9371 123.266 62.1994 124.677 62.9177 125.707L65.3533 129.203V123.266Z" fill="#002652"/>
<path d="M37.5093 222.145C37.5093 222.145 37.5046 222.147 37.5015 222.148C37.3188 222.247 37.0911 222.181 36.9884 222L33.6254 215.925C33.2632 215.272 33.051 214.546 33.0035 213.799L32.7664 210.531L31.2777 209.14C30.7545 208.657 30.4343 207.993 30.3736 207.287L29.8279 201.185L29.824 201.135C29.7976 200.922 29.7649 200.717 29.7183 200.51L29.7276 200.512L27.3068 187.954L35.4943 194.208C37.7231 195.067 38.254 196.225 38.977 197.768L40.2403 200.484C40.6702 201.478 40.8241 202.569 40.6896 203.642C40.5986 204.301 40.6041 204.968 40.7028 205.627C40.9625 207.495 41.3115 210.445 41.3115 210.445C41.3294 210.944 41.0223 211.388 40.559 211.556L40.4564 211.593C39.8656 211.755 39.2592 211.415 39.0921 210.826C38.9195 210.234 37.8537 206.718 37.5 205.626C37.4984 205.622 37.4969 205.619 37.4969 205.619C37.4331 205.442 37.2699 205.325 37.0833 205.324C36.9006 205.32 36.7397 205.438 36.6821 205.612L36.2351 206.98L35.8643 214.397L38.1227 220.343C38.3714 221.004 38.1273 221.751 37.5326 222.133L37.5093 222.145Z" fill="#C78982"/>
<path fill-rule="evenodd" clip-rule="evenodd" d="M117.365 115.453L144.801 104.681L148.642 112.592L128.965 125.358C127.607 126.29 126.112 126.999 124.536 127.462L90.4517 139.675L84.5095 155.471V203.224L34.8778 193.497L29.5547 199.214L9.12489 180.628C8.72672 180.283 7.74127 179.304 6.93639 178.35C6.91545 178.331 6.89465 178.311 6.87398 178.292L1.94221 173.362C0.0788116 171.584 -0.815186 169.477 0.962708 167.615L27.6927 139.643C29.246 135.816 32.7629 133.026 36.9932 132.482L91.6649 122.343L91.6657 122.38L110.371 117.287L117.365 115.453ZM21.044 170.47L31.1756 160.217C31.3426 160.309 31.5127 160.397 31.686 160.481L34.1374 161.667L33.9566 191.147L21.044 170.47Z" fill="url(#paint1_linear_1864_5152)"/>
<path opacity="0.1" d="M82.3865 209.431H72.0557C68.8412 209.431 66.2354 212.034 66.2354 215.245V243.881L82.3865 209.431Z" fill="black"/>
<path opacity="0.1" d="M82.3865 209.431H72.0557C68.8412 209.431 66.2354 212.034 66.2354 215.245V243.881L82.3865 209.431Z" fill="black"/>
<path opacity="0.1" d="M82.3865 209.431H72.0557C68.8412 209.431 66.2354 212.034 66.2354 215.245V243.881L82.3865 209.431Z" fill="black"/>
<defs>
<linearGradient id="paint0_linear_1864_5152" x1="242" y1="21.5" x2="415.5" y2="281.5" gradientUnits="userSpaceOnUse">
<stop offset="0.213761" stop-color="#4FBCFA"/>
<stop offset="1" stop-color="#0B7BFF"/>
</linearGradient>
<linearGradient id="paint1_linear_1864_5152" x1="74.3211" y1="104.681" x2="74.3211" y2="203.224" gradientUnits="userSpaceOnUse">
<stop stop-color="#BE3AF1"/>
<stop offset="1" stop-color="#E01351"/>
</linearGradient>
</defs>
</svg>
