<svg width="385" height="372" viewBox="0 0 385 372" fill="none" xmlns="http://www.w3.org/2000/svg">
<path d="M165.258 74.9465L154.316 69.8877L159.366 58.9284L170.308 63.9872L165.258 74.9465Z" fill="#4957D4"/>
<path d="M19.7256 200.818L15.7072 198.96L17.5619 194.936L21.5803 196.793L19.7256 200.818Z" fill="#A1C3FC"/>
<path d="M5.89468 103.343C5.68004 103.343 5.4731 103.222 5.37396 103.016C5.23536 102.728 5.35568 102.383 5.6425 102.245L197.045 9.6886L197.3 9.81764L377.932 101.711C378.216 101.856 378.33 102.204 378.185 102.488C378.041 102.772 377.692 102.885 377.409 102.742L197.033 10.9771L6.14493 103.286C6.06504 103.324 5.97938 103.343 5.89468 103.343Z" fill="#4957D4"/>
<path d="M385 98.6503H4.28479V110.522H385V98.6503Z" fill="#23286B"/>
<path d="M356.267 97.4973H27.2719V364.615C27.2719 368.198 30.177 371.103 33.7606 371.103H349.778C353.362 371.103 356.267 368.198 356.267 364.615V97.4973Z" fill="url(#paint0_linear_1869_5411)"/>
<path d="M373.379 113.475C373.087 113.475 372.835 113.254 372.806 112.954L371.195 96.8331C371.162 96.5153 371.394 96.2322 371.711 96.2004C372.024 96.1705 372.31 96.3997 372.342 96.7185L373.953 112.84C373.986 113.157 373.754 113.441 373.438 113.472C373.418 113.474 373.398 113.475 373.379 113.475Z" fill="#4957D4"/>
<path d="M10.7238 112.94C10.4321 112.94 10.1809 112.719 10.1501 112.421L8.53984 96.8381C8.50712 96.5212 8.73716 96.2371 9.05478 96.2034C9.36567 96.1755 9.65634 96.4008 9.68811 96.7196L11.2984 112.302C11.3311 112.619 11.1011 112.903 10.7834 112.937C10.7623 112.939 10.743 112.94 10.7238 112.94Z" fill="#4957D4"/>
<path d="M375.526 112.94C375.513 112.94 375.502 112.94 375.487 112.939C375.17 112.917 374.929 112.642 374.949 112.324L376.023 96.2024C376.045 95.8846 376.296 95.6535 376.637 95.6631C376.954 95.6853 377.195 95.9597 377.175 96.2785L376.102 112.4C376.081 112.704 375.828 112.94 375.526 112.94Z" fill="#4957D4"/>
<path d="M13.9417 112.402C13.6231 112.402 13.3651 112.143 13.3651 111.824V95.1665C13.3651 94.8477 13.624 94.5887 13.9417 94.5887C14.2593 94.5887 14.5182 94.8477 14.5182 95.1665V111.824C14.5182 112.144 14.2593 112.402 13.9417 112.402Z" fill="#4957D4"/>
<path d="M200.157 21.8101L186.964 13.5511L195.21 0.336395L208.403 8.59536L200.157 21.8101Z" fill="#E94A47"/>
<path d="M108.443 320.194C150.893 320.194 185.305 285.726 185.305 243.208C185.305 200.69 150.893 166.223 108.443 166.223C65.9937 166.223 31.5817 200.69 31.5817 243.208C31.5817 285.726 65.9937 320.194 108.443 320.194Z" fill="#CCDFFD"/>
<path d="M270.521 320.194C312.97 320.194 347.382 285.726 347.382 243.208C347.382 200.69 312.97 166.223 270.521 166.223C228.071 166.223 193.659 200.69 193.659 243.208C193.659 285.726 228.071 320.194 270.521 320.194Z" fill="#CCDFFD"/>
<path d="M108.442 320.193C131.315 320.193 151.844 310.174 165.924 294.291H50.9609C65.0404 310.175 85.5696 320.193 108.442 320.193Z" fill="white"/>
<path d="M270.52 320.193C293.393 320.193 313.922 310.174 328.001 294.291H213.038C227.118 310.175 247.645 320.193 270.52 320.193Z" fill="white"/>
<path d="M231.276 195.002H216.91V209.391H231.276V195.002Z" fill="#A3C4FC"/>
<path d="M260.917 205.054H249.105V216.885H260.917V205.054Z" fill="#A3C4FC"/>
<path d="M218.255 207.869H208.998V217.141H218.255V207.869Z" fill="white"/>
<path d="M252.23 194.821H240.418V206.652H252.23V194.821Z" fill="#EEEEEE"/>
<path d="M341.642 242.924H336.473V248.102H341.642V242.924Z" fill="#E94E4B"/>
<path d="M87.2038 243.948H82.0342V249.126H87.2038V243.948Z" fill="#272C6E"/>
<path d="M335.526 253.91H309.487V279.992H335.526V253.91Z" fill="#4957D4"/>
<path d="M335.526 253.91H309.487V279.992H335.526V253.91Z" fill="url(#paint1_linear_1869_5411)"/>
<path d="M154.105 182.568H137.772V198.927H154.105V182.568Z" fill="white"/>
<path d="M218.437 230.168H202.454V246.178H218.437V230.168Z" fill="#8BB5F4"/>
<path d="M232.086 230.168H216.102V246.178H232.086V230.168Z" fill="#E94E4B"/>
<path d="M232.086 230.168H216.102V246.178H232.086V230.168Z" fill="url(#paint2_linear_1869_5411)"/>
<path d="M276.684 217.885H260.7V233.895H276.684V217.885Z" fill="#8BB5F4"/>
<path d="M290.331 217.885H274.348V233.895H290.331V217.885Z" fill="#E94E4B"/>
<path d="M290.331 217.885H274.348V233.895H290.331V217.885Z" fill="url(#paint3_linear_1869_5411)"/>
<path d="M243.58 266.141H227.597V282.15H243.58V266.141Z" fill="#EEEEEE"/>
<path d="M254.865 224.538H231.47V247.97H254.865V224.538Z" fill="#4957D4"/>
<path d="M292.674 187.18H260.083V219.824H292.674V187.18Z" fill="url(#paint4_linear_1869_5411)"/>
<path d="M323.329 187.18H290.737V219.824H323.329V187.18Z" fill="#A3C4FC"/>
<path d="M111.809 210.208H79.2173V242.852H111.809V210.208Z" fill="#4957D4"/>
<path d="M111.809 210.208H79.2173V242.852H111.809V210.208Z" fill="url(#paint5_linear_1869_5411)"/>
<path d="M87.2838 219.932H62.868V244.387H87.2838V219.932Z" fill="#4957D4"/>
<path d="M79.6199 178.992H65.9321V192.701H79.6199V178.992Z" fill="#4957D4"/>
<path d="M111.809 179.503H79.2173V212.147H111.809V179.503Z" fill="#A3C4FC"/>
<path d="M111.809 179.503H79.2173V212.147H111.809V179.503Z" fill="#CEF72A"/>
<path d="M224.611 245.622H207.859V262.4H224.611V245.622Z" fill="#D7D8D9"/>
<path d="M79.5963 269.62L73.4373 260.951L82.0921 254.782L88.2511 263.451L79.5963 269.62Z" fill="#D7D8D9"/>
<path d="M328.423 237.728L316.8 225.643L328.865 214L340.489 226.086L328.423 237.728Z" fill="#8BB5F4"/>
<path d="M328.423 237.728L316.8 225.643L328.865 214L340.489 226.086L328.423 237.728Z" fill="#CEF72A"/>
<path d="M86.9571 281.943L75.333 269.858L87.3989 258.215L99.023 270.301L86.9571 281.943Z" fill="#8BB5F4"/>
<path d="M335.886 244.25L328.992 237.082L336.148 230.176L343.042 237.344L335.886 244.25Z" fill="white"/>
<path d="M231.173 276.223L217.961 265.907L228.261 252.673L241.473 262.989L231.173 276.223Z" fill="#A3C4FC"/>
<path d="M298.105 246.031L284.892 235.715L295.191 222.481L308.404 232.797L298.105 246.031Z" fill="#7BABEF"/>
<path d="M234.706 257.931L224.602 250.042L232.478 239.922L242.583 247.811L234.706 257.931Z" fill="#A3C4FC"/>
<path d="M234.706 257.931L224.602 250.042L232.478 239.922L242.583 247.811L234.706 257.931Z" fill="#CEF72A"/>
<path d="M116.686 202.662L106.581 194.772L114.458 184.652L124.562 192.541L116.686 202.662Z" fill="#A3C4FC"/>
<path d="M250.479 252.685H234.496V268.694H250.479V252.685Z" fill="#E94E4B"/>
<path d="M250.479 252.685H234.496V268.694H250.479V252.685Z" fill="url(#paint6_linear_1869_5411)"/>
<path d="M102.319 248.256H86.3353V264.265H102.319V248.256Z" fill="#E94E4B"/>
<path d="M102.319 248.256H86.3353V264.265H102.319V248.256Z" fill="url(#paint7_linear_1869_5411)"/>
<path d="M118.157 254.907H102.174V270.916H118.157V254.907Z" fill="#4957D4"/>
<path d="M105.894 268.214H89.9111V284.224H105.894V268.214Z" fill="white"/>
<path d="M112.723 282.799L107.163 288.996L100.976 283.426L106.537 277.228L112.723 282.799Z" fill="#4957D4"/>
<path d="M240.773 199.975H230.409V210.355H240.773V199.975Z" fill="#4957D4"/>
<path d="M121.478 216.783H111.115V227.162H121.478V216.783Z" fill="#4957D4"/>
<path d="M231.836 212.177H226.072V217.951H231.836V212.177Z" fill="#272C6E"/>
<path d="M297.289 337.89L296.804 336.84C312.397 329.6 325.22 317.135 332.909 301.74L333.942 302.257C326.137 317.884 313.119 330.539 297.289 337.89Z" fill="white"/>
<path d="M1.05201 198.103L0 197.632C7.40356 181.087 23.8055 169.049 41.787 166.962L41.9198 168.11C24.3339 170.15 8.29387 181.924 1.05201 198.103Z" fill="#23286B"/>
<path d="M297.116 365.941L296.818 364.824C302.107 363.404 307.379 360.16 312.935 354.903C321.296 346.994 327.895 337.133 332.018 326.384L333.096 326.799C328.91 337.708 322.214 347.716 313.729 355.742C308.029 361.135 302.595 364.471 297.116 365.941Z" fill="white"/>
<path d="M159.451 117.011L158.304 116.877C160.449 98.5774 175.763 82.5843 193.926 79.674L194.108 80.8143C176.438 83.6465 161.537 99.2072 159.451 117.011Z" fill="#23286B"/>
<path d="M286.109 362.212L279.823 359.306L282.724 353.01L289.011 355.917L286.109 362.212Z" fill="#4957D4"/>
<path d="M337.964 355.294L333.308 353.141L335.457 348.478L340.113 350.631L337.964 355.294Z" fill="#D62929"/>
<path d="M155.135 348.974C157.518 348.974 159.45 347.041 159.45 344.657C159.45 342.273 157.518 340.34 155.135 340.34C152.752 340.34 150.82 342.273 150.82 344.657C150.82 347.041 152.752 348.974 155.135 348.974Z" fill="white"/>
<path d="M258.819 153.562L252.533 150.656L255.435 144.36L261.721 147.267L258.819 153.562Z" fill="white"/>
<path d="M158.065 318.13L147.124 313.071L152.174 302.112L163.116 307.171L158.065 318.13Z" fill="#4957D4"/>
<path d="M158.065 318.13L147.124 313.071L152.174 302.112L163.116 307.171L158.065 318.13Z" fill="#CEF72A"/>
<defs>
<linearGradient id="paint0_linear_1869_5411" x1="191.769" y1="97.4973" x2="191.769" y2="371.103" gradientUnits="userSpaceOnUse">
<stop stop-color="#B694FF"/>
<stop offset="1" stop-color="#D5E4FF"/>
</linearGradient>
<linearGradient id="paint1_linear_1869_5411" x1="322.506" y1="253.91" x2="322.506" y2="279.992" gradientUnits="userSpaceOnUse">
<stop stop-color="#D44994"/>
<stop offset="1" stop-color="#B229E2"/>
</linearGradient>
<linearGradient id="paint2_linear_1869_5411" x1="224.094" y1="230.168" x2="224.094" y2="246.178" gradientUnits="userSpaceOnUse">
<stop stop-color="#EE755A"/>
<stop offset="1" stop-color="#CD4F33"/>
</linearGradient>
<linearGradient id="paint3_linear_1869_5411" x1="282.339" y1="217.885" x2="282.339" y2="233.895" gradientUnits="userSpaceOnUse">
<stop stop-color="#EE755A"/>
<stop offset="1" stop-color="#CD4F33"/>
</linearGradient>
<linearGradient id="paint4_linear_1869_5411" x1="276.379" y1="187.18" x2="276.379" y2="219.824" gradientUnits="userSpaceOnUse">
<stop stop-color="#D44994"/>
<stop offset="1" stop-color="#B229E2"/>
</linearGradient>
<linearGradient id="paint5_linear_1869_5411" x1="95.5129" y1="210.208" x2="95.5129" y2="242.852" gradientUnits="userSpaceOnUse">
<stop stop-color="#D44994"/>
<stop offset="1" stop-color="#B229E2"/>
</linearGradient>
<linearGradient id="paint6_linear_1869_5411" x1="242.488" y1="252.685" x2="242.488" y2="268.694" gradientUnits="userSpaceOnUse">
<stop stop-color="#EE755A"/>
<stop offset="1" stop-color="#CD4F33"/>
</linearGradient>
<linearGradient id="paint7_linear_1869_5411" x1="94.327" y1="248.256" x2="94.327" y2="264.265" gradientUnits="userSpaceOnUse">
<stop stop-color="#EE755A"/>
<stop offset="1" stop-color="#CD4F33"/>
</linearGradient>
</defs>
</svg>
