<svg viewBox="0 0 44 35" fill="none" xmlns="http://www.w3.org/2000/svg">
    <path d="M9.94872 0C12.8205 0 15.1795 0.92647 17.0256 2.77941C18.8718 4.56373 19.7949 6.93137 19.7949 9.88235C19.7949 11.2549 19.6239 12.6275 19.2821 14C18.9402 15.3725 18.2222 17.4314 17.1282 20.1765L11.1795 35H1.02564L5.4359 18.7353C3.7265 17.9804 2.39316 16.848 1.4359 15.3382C0.478633 13.8284 0 12.0098 0 9.88235C0 6.93137 0.923077 4.56373 2.76923 2.77941C4.68376 0.92647 7.07692 0 9.94872 0ZM34.1538 0C37.0256 0 39.3846 0.92647 41.2308 2.77941C43.0769 4.56373 44 6.93137 44 9.88235C44 11.2549 43.8291 12.6275 43.4872 14C43.1453 15.3725 42.4274 17.4314 41.3333 20.1765L35.3846 35H25.2308L29.641 18.7353C27.9316 17.9804 26.5983 16.848 25.641 15.3382C24.6838 13.8284 24.2051 12.0098 24.2051 9.88235C24.2051 6.93137 25.1282 4.56373 26.9744 2.77941C28.8889 0.92647 31.2821 0 34.1538 0Z" fill="#4957D4"></path>
</svg>