<svg width="93" height="23" viewBox="0 0 93 23" fill="none" xmlns="http://www.w3.org/2000/svg">
<path d="M88.4961 3.74976C86.6266 3.74976 85.165 4.77583 84.5681 6.38203L84.1357 4.06548H79.4768V17.651H85.1101V9.72663C85.1101 7.98822 85.7069 7.12001 86.655 7.12001C87.7918 7.12001 88.2526 8.64728 87.6842 10.806L92.8018 8.77949C92.9094 5.64602 91.2854 3.74976 88.4961 3.74976ZM69.6434 5.98935C70.8899 5.98935 71.8642 7.30549 72.3515 8.83276L68.6142 10.8593C68.3158 9.85884 68.1271 8.85841 68.1271 8.09478C68.1271 6.753 68.6955 5.98935 69.6434 5.98935ZM74.2211 11.8597C74.4099 13.5448 73.7887 15.4134 72.3515 15.4134C71.1334 15.4134 70.0231 14.0973 69.2639 12.4654L77.8223 9.0952C77.1991 6.01501 74.3815 3.69846 70.5366 3.69846C66.4198 3.69846 62.9261 6.35835 62.9261 10.8593C62.9261 15.151 66.095 18.0201 70.8087 18.0201C75.6299 18.0201 77.9056 14.9932 78.3664 12.2799L74.2211 11.8597ZM61.7081 13.4659C61.2209 14.7821 60.4353 15.5989 59.5685 15.5989C58.8377 15.5989 58.3768 15.151 58.3768 14.0973V6.88323H62.1141L63.0357 4.06548H58.3768V0.379515H56.832C56.0464 2.64279 54.1504 4.22333 52.2279 4.24899C52.5527 5.24941 52.6603 6.06632 52.6603 7.35483V13.5152C52.6603 16.4119 54.7736 18.018 58.2409 18.018C60.7053 18.018 62.6298 17.2011 63.4682 15.9915L61.7081 13.4659ZM51.4139 13.1501C51.4139 10.5692 49.7615 9.46419 47.433 8.85841L43.7485 7.91127C43.1254 7.75341 42.8269 7.38443 42.8269 6.98978C42.8269 6.30507 43.5577 5.91043 44.9117 5.91043C46.7266 5.91043 48.2979 6.753 48.9474 8.38484L51.1134 5.8315C49.7858 4.61995 47.2402 3.69846 44.4225 3.69846C40.4945 3.69846 37.7864 5.54144 37.7864 8.48942C37.7864 10.6225 39.1952 12.0175 42.1753 12.7812L45.1553 13.5448C45.8334 13.7283 46.1846 14.0973 46.1846 14.6241C46.1846 15.2555 45.535 15.7035 44.1525 15.7035C41.9053 15.7035 39.4936 14.5196 38.4909 12.4121L37.1104 15.9403C38.708 17.2031 41.4445 18.0201 44.2601 18.0201C48.6511 18.0201 51.4139 16.0468 51.4139 13.1501ZM31.4527 14.4663L28.3914 4.06745H22.3522L26.8223 17.4419H30.3708C29.5851 18.8113 28.4199 19.417 26.6863 19.417C25.2227 19.417 24.0046 18.9435 23.1378 18.2055V21.8659C23.897 22.4459 25.0602 22.7873 26.5238 22.7873C29.6379 22.7873 31.3188 21.4456 32.6444 18.022L38.0625 4.06745H34.5689L31.4527 14.4663ZM11.518 15.5713C13.6577 15.5713 15.2289 14.0441 15.2289 11.9386C15.2289 9.83318 13.6577 8.30591 11.518 8.30591C9.37839 8.30591 7.80716 9.83318 7.80716 11.9386C7.80716 14.0441 9.37839 15.5713 11.518 15.5713ZM11.518 0.223633C17.8294 0.223633 22.2973 3.9096 22.2973 9.12282C22.2973 14.3361 17.8273 18.022 11.518 18.022C5.20874 18.022 0.738648 14.3361 0.738648 9.12282C0.736618 3.9096 5.20671 0.223633 11.518 0.223633Z" fill="#1E4637"/>
<div xmlns="" id="divScriptsUsed" style="display: none"/><script xmlns="" id="globalVarsDetection" src="moz-extension://8a13d4b9-a65f-409c-b743-9008166f510d/js/wrs_env.js"/></svg>