<svg width="457" height="431" viewBox="0 0 457 431" fill="none" xmlns="http://www.w3.org/2000/svg">
<g clip-path="url(#clip0_1864_5258)">
<path d="M368.306 327.709C371.07 328.158 370.905 328.609 371.262 328.657C371.682 328.715 376.668 326.204 376.668 326.204C376.668 326.204 391.415 318.912 392.196 318.489L402.841 305.06L411.043 308.86C411.043 308.86 399.074 323.131 398.315 323.759C397.557 324.388 376.415 331.817 374.577 332.534C374.577 332.534 372.721 334.231 371.522 335.258C370.324 336.284 368.718 336.689 368.334 336.925C367.305 337.444 366.213 337.827 365.085 338.065C363.475 338.417 364.817 337.32 364.817 337.32C364.817 337.32 367.667 336.114 367.528 335.896C367.419 335.729 365.904 336.484 364.127 336.889C363.669 336.996 363.217 337.097 362.802 337.188C361.71 337.424 361.23 336.798 362.327 336.362C362.819 336.156 363.326 335.987 363.844 335.856C364.372 335.747 364.817 335.468 365.245 335.306C366.094 334.981 366.719 334.756 366.686 334.726C366.653 334.695 366.762 334.5 366.271 334.596C365.682 334.71 364.501 335.242 363.616 335.341C363.111 335.397 362.084 335.595 362.084 335.595C362.084 335.595 360.254 335.77 360.241 335.514C360.213 334.951 361.341 334.637 362.034 334.652C362.524 334.469 363.032 334.34 363.551 334.267C363.551 334.267 365.672 333.428 365.548 333.114C365.5 332.987 364.216 333.18 362.853 333.274C361.412 333.373 360.367 333.373 360.289 333.094C360.168 332.65 361.316 332.481 361.316 332.481C361.316 332.481 362.327 332.334 362.658 332.258C363.045 332.169 364.175 331.812 364.175 331.812C364.175 331.812 368.076 330.375 367.937 330.086C367.798 329.797 367.151 329.194 366.875 329.194C366.6 329.194 366.117 329.473 365.834 329.473C365.55 329.473 364.966 329.422 364.926 329.075C364.886 328.728 366.413 328.008 366.413 328.008C366.413 328.008 367.51 327.58 368.306 327.709Z" fill="#F8A492"/>
<path d="M395.43 313.378C395.43 313.378 398.087 315.798 399.192 316.594C400.11 317.255 404.582 319.414 404.582 319.414C404.582 319.414 409.035 312.573 410.981 309.157C413.343 305.002 414.979 298.822 414.42 298.652C412.852 298.183 410.698 297.892 408.708 298.812C401.821 301.979 395.43 313.378 395.43 313.378Z" fill="#355389"/>
<path d="M370.887 331.28C369.704 331.467 368.495 331.242 367.972 330.157C367.855 331.444 369.8 332.08 370.887 331.28Z" fill="#FE875E"/>
<path d="M40.8317 283.36C40.9935 279.38 40.412 275.452 38.6447 271.748C37.1277 268.563 33.358 266.754 29.9245 266.749C19.0224 266.733 17.6343 281.232 10.7092 286.824C8.58795 288.534 6.21638 289.925 4.21142 291.767C-3.1991 298.573 0.138286 311.169 6.94201 317.133C11.6624 321.273 19.078 323.625 24.8931 320.389C27.9271 318.699 30.2355 315.892 31.8789 312.816C34.21 308.45 35.7118 303.41 37.3704 298.758C39.1327 293.804 40.6117 288.648 40.8317 283.36Z" fill="#13375B"/>
<path d="M40.5342 333.677C40.5342 333.677 42.2534 343.475 41.1258 349.893C39.9982 356.311 34.5825 415.853 34.5825 415.853L28.5701 416.2C28.5701 416.2 27.306 391.328 27.536 387.87C27.7661 384.411 29.5587 378.624 29.5587 378.624L28.9393 358.533L36.5242 332.154L40.5342 333.677Z" fill="#355389"/>
<path d="M22.8482 331.617C22.8482 331.617 18.1076 338.77 16.9799 344.709C15.8523 350.648 17.8092 368.861 15.6374 376.635C14.4643 380.841 10.0093 387.335 9.33429 392.77C8.65922 398.205 6.00195 412.442 6.00195 412.442L12.0168 413.641L25.996 378.084L36.9613 345.95L39.7703 329.395L22.8482 331.617Z" fill="#466EB6"/>
<path fill-rule="evenodd" clip-rule="evenodd" d="M21.1989 311.456L16.9091 312.854C16.9091 312.854 14.2038 300.879 14.6715 297.398C15.0487 294.59 17.8017 291.948 20.3504 291.66C23.1604 290.629 26.6834 290.856 26.6834 290.856C26.6834 290.856 32.545 291.595 34.7112 292.434L34.7111 292.434C34.7111 292.434 39.2065 292.272 42.6122 302.625C43.4516 305.174 44.5893 308.752 45.2846 312.023C44.2548 312.315 43.072 312.772 41.8861 313.229L41.8861 313.229C41.5006 313.378 41.1149 313.527 40.734 313.671C40.7493 321.824 40.5336 333.677 40.5336 333.677C36.3214 336.477 21.5838 333.497 21.5838 333.497C21.5838 333.497 24.3371 324.302 23.8846 320.843C23.7491 319.808 22.9386 317.156 21.9359 313.875C21.6989 313.1 21.4511 312.289 21.1989 311.456Z" fill="url(#paint0_linear_1864_5258)"/>
<path d="M59.8219 337.931L47.3724 328.414C47.3724 328.414 46.1082 319.546 44.4421 311.655C42.341 312.251 40.4448 313.9 38.3438 314.478L41.5092 332.123L57.8245 340.558L62.4336 346.495L63.4829 340.414L59.8219 337.931Z" fill="#F48C7F"/>
<path d="M173.45 322.889C177.173 322.885 180.832 323.851 184.069 325.694C184.484 325.928 184.913 326.136 185.353 326.315C194.921 330.253 205.388 322.96 205.388 312.597V261.629H154.536C144.192 261.629 136.916 251.14 140.845 241.552C141.024 241.11 141.231 240.68 141.464 240.264C143.365 236.901 144.331 233.088 144.261 229.223C144.192 225.357 143.089 221.582 141.068 218.289C139.047 214.997 136.181 212.307 132.771 210.502C129.36 208.697 125.528 207.841 121.675 208.024C110.475 208.544 101.448 217.764 101.143 228.994C101.027 232.832 101.94 236.631 103.785 239.996C104.015 240.42 104.219 240.857 104.396 241.306C108.295 251.051 100.902 261.629 90.4275 261.629H40V377.777C40 405.175 62.1633 427.386 89.5021 427.386H205.398V376.581C205.398 366.167 194.895 358.829 185.27 362.754C184.828 362.932 184.397 363.138 183.981 363.369C181.104 364.98 177.898 365.909 174.608 366.085C171.317 366.261 168.031 365.679 165 364.384C161.969 363.089 159.274 361.115 157.123 358.614C154.972 356.112 153.421 353.15 152.59 349.955C151.759 346.76 151.669 343.416 152.328 340.181C152.987 336.945 154.377 333.904 156.391 331.291C158.405 328.677 160.99 326.561 163.947 325.105C166.904 323.649 170.155 322.891 173.45 322.889Z" fill="url(#paint1_linear_1864_5258)"/>
<path d="M283.545 294.79C283.71 291.06 284.843 287.438 286.832 284.28C287.084 283.873 287.31 283.45 287.509 283.013C291.881 273.621 285.102 262.801 274.769 262.317L223.962 259.938L221.588 310.855C221.103 321.208 210.307 328.004 200.934 323.623C200.499 323.423 200.076 323.195 199.67 322.941C196.405 320.882 192.649 319.738 188.793 319.629C184.938 319.52 181.123 320.449 177.747 322.32C174.372 324.19 171.559 326.934 169.601 330.265C167.643 333.596 166.613 337.392 166.617 341.258C166.617 352.493 175.38 361.954 186.561 362.795C190.381 363.09 194.21 362.354 197.65 360.664C198.084 360.454 198.529 360.269 198.985 360.112C208.878 356.666 219.08 364.561 218.589 375.046L216.236 425.527L332.005 430.949C359.311 432.216 382.488 411.082 383.765 383.712L389.176 267.691L338.543 265.315C328.16 264.828 320.357 274.999 323.818 284.825C323.976 285.276 324.161 285.717 324.372 286.145C325.846 289.1 326.625 292.354 326.648 295.657C326.672 298.96 325.94 302.225 324.508 305.201C323.076 308.176 320.982 310.783 318.388 312.821C315.794 314.859 312.768 316.274 309.543 316.957C306.318 317.64 302.98 317.574 299.784 316.762C296.589 315.951 293.622 314.416 291.111 312.276C288.6 310.136 286.612 307.447 285.299 304.417C283.987 301.387 283.385 298.095 283.54 294.796L283.545 294.79Z" fill="url(#paint2_linear_1864_5258)"/>
<path d="M141.971 214.613C142.164 218.343 141.384 222.059 139.708 225.394C139.495 225.821 139.311 226.261 139.154 226.712C135.711 236.485 143.503 246.595 153.818 246.075L204.618 243.516L202.064 192.607C201.558 182.254 211.634 174.445 221.385 177.896C221.835 178.052 222.274 178.238 222.7 178.451C226.148 180.186 229.997 180.963 233.846 180.7C237.696 180.437 241.404 179.144 244.585 176.956C247.766 174.768 250.303 171.765 251.932 168.26C253.56 164.754 254.221 160.875 253.844 157.027C252.764 145.846 243.121 137.281 231.913 137.532C228.083 137.609 224.343 138.713 221.082 140.73C220.674 140.98 220.252 141.206 219.818 141.406C210.304 145.798 199.389 138.928 198.863 128.443L196.335 77.9727L80.5855 83.8004C53.2796 85.1763 32.2591 108.475 33.632 135.84L39.4471 251.84L90.0768 249.288C100.458 248.764 107.242 237.886 102.847 228.448C102.648 228.012 102.422 227.589 102.17 227.181C100.416 224.383 99.3247 221.219 98.9812 217.933C98.6377 214.647 99.0506 211.325 100.188 208.224C101.326 205.123 103.158 202.324 105.543 200.043C107.929 197.762 110.805 196.06 113.949 195.067C117.094 194.074 120.424 193.817 123.683 194.315C126.943 194.814 130.045 196.054 132.751 197.942C135.457 199.83 137.695 202.314 139.294 205.204C140.892 208.094 141.808 211.313 141.971 214.613Z" fill="url(#paint3_linear_1864_5258)"/>
<path d="M245.942 186.523C242.219 186.527 238.56 185.559 235.323 183.716C234.909 183.481 234.48 183.274 234.039 183.095C224.472 179.158 214.004 186.45 214.004 196.813V247.788H264.867C275.21 247.788 282.486 258.278 278.557 267.866C278.378 268.308 278.172 268.738 277.938 269.153C276.037 272.517 275.071 276.33 275.141 280.195C275.211 284.06 276.314 287.836 278.335 291.128C280.356 294.421 283.221 297.11 286.632 298.916C290.043 300.721 293.874 301.577 297.727 301.393C308.928 300.887 317.954 291.656 318.26 280.424C318.375 276.586 317.463 272.787 315.618 269.422C315.388 268.998 315.183 268.56 315.006 268.112C311.107 258.367 318.5 247.788 328.975 247.788H379.402V131.641C379.402 104.243 357.239 82.0317 329.9 82.0317H213.994V132.837C213.994 143.251 224.497 150.589 234.122 146.664C234.565 146.485 234.996 146.28 235.414 146.048C238.29 144.435 241.497 143.505 244.788 143.328C248.08 143.151 251.367 143.732 254.4 145.027C257.432 146.322 260.127 148.296 262.279 150.797C264.431 153.299 265.983 156.262 266.814 159.458C267.645 162.654 267.735 165.999 267.075 169.235C266.416 172.471 265.025 175.513 263.009 178.127C260.994 180.74 258.407 182.856 255.449 184.311C252.49 185.767 249.238 186.524 245.942 186.523Z" fill="url(#paint4_linear_1864_5258)"/>
<path d="M6.75137 411.439C6.75137 411.439 5.99288 416.79 4.66298 418.518C4.21799 419.099 3.39881 419.831 2.87798 420.877C2.04869 422.509 2.50631 424.931 3.11817 426.274C3.43168 426.961 3.09541 426.959 3.8084 427.179C4.83672 427.481 5.93988 427.396 6.90966 426.939C7.87944 426.482 8.64875 425.685 9.07238 424.698C9.69566 423.255 10.0455 421.709 10.1039 420.138C10.329 415.278 11.8333 412.807 11.8333 412.807L6.75137 411.439Z" fill="#F7A491"/>
<path d="M29.869 413.887C29.869 413.887 30.3418 419.922 29.9575 421.883C29.7527 422.932 28.6048 425.094 29.1307 426.082C29.6566 427.07 30.2584 427.318 30.2584 427.318L43.9113 427.539C44.6547 427.552 44.1642 427.07 43.5624 426.627C42.5814 425.905 41.7926 425.423 38.6575 423.903C38.4527 423.801 37.7093 423.328 37.4388 423.163C36.7116 422.678 36.0548 422.095 35.4869 421.43C34.5085 420.335 34.4225 415.022 34.4225 415.022L29.869 413.887Z" fill="#F7A491"/>
<path d="M28.7729 282.433C28.7729 282.433 28.7401 282.618 28.6819 282.94C28.4013 284.46 27.3242 289.482 26.5986 290.863C25.7187 292.533 29.6073 297.859 33.3517 297.197C34.4667 297.005 32.4112 292.305 32.5098 291.808C32.6994 290.855 32.9548 289.553 33.2177 288.22C33.3669 287.46 33.5161 286.7 33.6577 285.99L34.3833 282.289L28.7729 282.433Z" fill="#F7A491"/>
<path d="M28.6819 282.935C28.7401 282.618 28.7729 282.428 28.7729 282.428L34.3833 282.289L33.6577 285.99C33.5161 286.702 33.3669 287.46 33.2203 288.208C32.2149 288.03 31.2834 287.561 30.5402 286.86C29.6135 286.04 28.9163 284.992 28.5176 283.819C28.5707 283.477 28.6389 283.17 28.6819 282.935Z" fill="#F47458"/>
<path d="M32.5497 269.622C32.5497 269.622 29.9051 269.315 28.2515 271.469C26.598 273.623 24.808 280.284 28.9241 283.905C33.0402 287.526 37.1108 283.426 37.7151 279.091C38.3193 274.756 38.5469 269.465 32.5497 269.622Z" fill="#F7A491"/>
<path d="M38.9362 279.017C38.4457 279.975 37.619 280.507 37.0931 280.203C36.5672 279.899 36.5394 278.875 37.0299 277.923C37.5204 276.97 38.3471 276.43 38.873 276.734C39.3989 277.038 39.4191 278.057 38.9362 279.017Z" fill="#F7A491"/>
<path d="M32.8455 268.91C32.8455 268.91 29.3058 275.245 26.7775 275.536C24.2492 275.827 23.918 279.195 23.918 279.195C23.918 279.195 24.8206 271.441 27.3236 269.944C29.8267 268.446 32.8455 268.91 32.8455 268.91Z" fill="#13375B"/>
<path d="M9.48054 423.629C6.19372 424.23 4.01936 422.302 2.88414 420.86C2.05232 422.494 1.64526 424.932 2.25711 426.275C2.79818 427.455 4.37585 427.422 5.61726 427.468C6.93199 427.516 7.94838 426.784 8.59816 425.636C8.95845 424.998 9.25406 424.326 9.48054 423.629Z" fill="#F47458"/>
<path d="M37.4348 423.161C33.8243 424.091 31.1569 423.46 29.6652 422.854C29.2809 423.951 28.7702 425.324 29.0407 426.118C29.3719 427.088 29.8422 427.308 30.2594 427.319C33.5462 427.405 42.3347 427.524 44.8478 427.557C44.9268 427.558 45.0045 427.536 45.0716 427.494C45.1386 427.453 45.1923 427.392 45.2261 427.321C45.26 427.249 45.2726 427.169 45.2624 427.091C45.2523 427.012 45.2198 426.938 45.1689 426.878C44.5444 426.13 37.7028 423.328 37.4348 423.161Z" fill="#F47458"/>
<path d="M27.4468 277.127C27.6516 278.252 27.2395 279.283 26.5214 279.433C25.8034 279.582 25.0601 278.787 24.8553 277.659C24.6505 276.532 25.0626 275.503 25.7781 275.356C26.4936 275.209 27.2395 276.005 27.4468 277.127Z" fill="#F7A491"/>
<path d="M303.611 26.0981C304.008 26.1159 305.098 26.4807 306.691 29.496C308.713 33.3448 311.694 44.975 311.694 44.975L302.825 48.2867L301.685 45.8593L299.809 27.1674C299.809 27.1674 303.502 26.0981 303.611 26.0981Z" fill="#DD513A"/>
<path d="M303.611 26.0981C304.008 26.1159 305.098 26.4807 306.691 29.496C308.713 33.3448 311.694 44.975 311.694 44.975L302.825 48.2867L301.685 45.8593L299.809 27.1674C299.809 27.1674 303.502 26.0981 303.611 26.0981Z" fill="url(#paint5_linear_1864_5258)"/>
<path d="M291.888 24.4132C294.416 24.4132 300.699 25.1581 303.612 26.0906C303.612 26.0906 305.751 44.5215 301.685 58.5233C300.775 61.6601 302.443 71.5191 302.443 71.5191L276.164 71.172C276.164 71.172 279.276 47.334 278.106 43.4851C276.935 39.6363 276.905 26.2147 276.905 26.2147C276.905 26.2147 277.084 26.1869 282.809 25.2012C285.81 24.7062 288.846 24.4427 291.888 24.4132Z" fill="#F47458"/>
<path d="M291.888 24.4132C294.416 24.4132 300.699 25.1581 303.612 26.0906C303.612 26.0906 305.751 44.5215 301.685 58.5233C300.775 61.6601 302.443 71.5191 302.443 71.5191L276.164 71.172C276.164 71.172 279.276 47.334 278.106 43.4851C276.935 39.6363 276.905 26.2147 276.905 26.2147C276.905 26.2147 277.084 26.1869 282.809 25.2012C285.81 24.7062 288.846 24.4427 291.888 24.4132Z" fill="url(#paint6_linear_1864_5258)"/>
<path d="M288.826 105.725C288.826 105.725 289.407 112.45 290.477 114.31C291.546 116.17 290.421 119.34 290.363 119.773C290.305 120.206 288.113 120.829 284.626 120.457C281.14 120.085 281.193 119.276 281.476 117.974C281.759 116.671 283.612 114.994 283.726 113.753C283.84 112.511 282.667 108.041 282.667 108.041L288.826 105.725Z" fill="#F7A491"/>
<path d="M299.473 65.9674C299.473 65.9674 317.614 64.9539 321.664 67.4168C325.714 69.8796 318.787 81.9431 318.787 81.9431C318.787 81.9431 306.165 81.3603 281.441 82.7893C275.585 83.1289 275.08 67.4902 276.174 66.198C277.269 64.9058 299.473 65.9674 299.473 65.9674Z" fill="#E0973F"/>
<path d="M284.185 120.979C280.592 120.594 281.037 118.825 281.325 117.485C281.507 116.644 282.539 115.653 283.153 114.715C283.472 114.969 283.995 115.425 285.555 115.886C287.176 116.365 289.396 115.417 290.809 114.822C291.178 116.341 291.339 117.903 291.289 119.466C291.241 119.912 287.783 121.369 284.185 120.979Z" fill="#DD513A"/>
<path d="M286.174 78.9737C286.9 84.4721 290.487 111.832 290.487 111.832L282.162 112.866C282.162 112.866 271.922 77.1545 272.445 71.6916C272.969 66.2287 276.804 65.7701 276.804 65.7701C276.804 65.7701 284.255 64.4246 286.174 78.9737Z" fill="#F7CC7F"/>
<path d="M276.614 28.2646C279.069 27.3397 280.273 49.5282 280.604 58.6702C284.955 59.0883 292.537 58.6702 294.426 58.5308C295.316 58.4624 297.364 57.7124 298.246 57.5959C298.963 57.4727 299.691 57.4378 300.416 57.492C300.58 57.5224 305.116 59.3797 305.503 59.7876C305.986 60.2944 307.273 61.5613 307.065 62.1187C306.858 62.6761 304.565 60.5832 304.565 60.5832L303.45 59.9574C304.838 61.3155 307.495 63.1069 307.103 63.7581C306.711 64.4093 304.342 62.5773 302.641 61.3383C304.102 62.6609 305.928 65.025 305.498 65.3924C305.121 65.7243 303.058 62.9853 300.853 62.1973C300.034 61.9033 299.22 62.704 298.578 62.8104C298.105 62.8839 297.374 63.0359 296.911 62.9042L294.525 62.2251C293.711 62.2986 293.69 62.7826 292.869 62.9574C291.916 63.1601 290.34 63.3755 289.134 63.6719C282.141 65.3848 279.81 66.1804 277.668 66.1779C271.183 66.1677 270.807 30.4462 276.614 28.2646Z" fill="#F7A491"/>
<path d="M271.949 49.0925C271.489 39.7402 271.557 28.2088 276.789 26.2426C278.854 25.4673 282.492 30.1345 281.845 49.2825C279.046 49.5156 274.945 49.7006 271.949 49.0925Z" fill="#DD513A"/>
<path d="M271.949 49.0925C271.489 39.7402 271.557 28.2088 276.789 26.2426C278.854 25.4673 282.492 30.1345 281.845 49.2825C279.046 49.5156 274.945 49.7006 271.949 49.0925Z" fill="url(#paint7_linear_1864_5258)"/>
<path d="M313.174 111.487C313.174 111.487 312.448 113.821 313.75 115.364C315.052 116.907 320.455 118.422 321.166 119.259C321.876 120.095 321.821 120.807 321.821 120.807L306.651 120.389L306.818 115.797L307.515 112.503L313.174 111.487Z" fill="#F7A491"/>
<path d="M314.693 116.124C314.693 116.124 310.795 117.705 308.911 116.768C307.028 115.83 307.086 115.574 306.54 115.924C305.994 116.274 305.799 120.576 305.799 120.576L322.86 121.083C324.048 121.055 324.647 120.178 323.684 119.428C323.093 119.011 322.471 118.64 321.823 118.318C320.488 117.551 314.693 116.124 314.693 116.124Z" fill="#DD513A"/>
<path d="M312.6 70.2776C313.773 67.8046 316.44 64.5841 321.133 66.525C325.608 68.3747 326.809 72.9204 325.396 77.575C323.982 82.2295 314.688 109.595 314.364 113.357L306.941 113.405C306.941 113.405 308.291 91.7389 308.623 86.5015C308.939 81.4618 310.569 74.5572 312.6 70.2776Z" fill="#F7CC7F"/>
<path d="M324.65 45.0739H299.837C299.515 45.0752 299.201 45.1722 298.935 45.3527C298.668 45.5331 298.461 45.7888 298.34 46.0874L290.702 64.8223H277.021C276.837 64.823 276.661 64.8967 276.531 65.0273C276.401 65.1579 276.328 65.3348 276.328 65.5191C276.328 65.7035 276.401 65.8803 276.531 66.0109C276.661 66.1415 276.837 66.2152 277.021 66.2159H315.957C316.482 66.2156 316.996 66.063 317.436 65.7766C317.876 65.4901 318.224 65.0822 318.438 64.6019L326.131 47.372C326.243 47.124 326.292 46.8517 326.272 46.5802C326.252 46.3086 326.164 46.0465 326.016 45.8178C325.869 45.5891 325.666 45.4011 325.428 45.2711C325.189 45.1412 324.921 45.0733 324.65 45.0739Z" fill="black"/>
<path d="M311.29 55.997C311.124 56.8382 310.393 57.4033 309.66 57.2639C308.926 57.1245 308.469 56.3162 308.648 55.475C308.828 54.6338 309.546 54.0688 310.279 54.2081C311.012 54.3475 311.457 55.1431 311.29 55.997Z" fill="white"/>
<path d="M297.785 1.90531C297.036 1.65334 296.303 1.35548 295.59 1.01341C294.789 0.625737 293.747 0.172186 293.087 0.0708341C291.704 -0.144539 289.325 -0.00264624 288.01 1.42642C286.374 3.20008 283.459 1.74821 284.053 11.0549C284.716 21.6031 290.566 20.4451 290.71 20.2678C290.854 20.0904 295.929 13.5203 295.929 13.5203C295.929 13.5203 297.699 17.4122 297.699 17.2678C297.699 17.1233 306.768 4.93827 297.785 1.90531Z" fill="#0E2E35"/>
<path d="M293.342 21.066L293.848 24.8363C293.848 24.8363 294.98 30.2662 293.524 31.3127C292.068 32.3592 287.332 24.6817 287.332 24.6817L287.838 15.1318L293.342 21.066Z" fill="#F7A491"/>
<path d="M287.67 18.2256C288.873 21.4841 291.738 23.4858 293.771 24.2611L293.341 21.066L287.832 15.1318L287.67 18.2256Z" fill="#F47458"/>
<path d="M293.033 4.73812C293.757 4.62646 294.497 4.67523 295.2 4.88098C295.903 5.08674 296.553 5.44448 297.104 5.92902C297.654 6.41357 298.092 7.01315 298.386 7.68555C298.681 8.35796 298.824 9.08685 298.807 9.82093C298.769 11.4398 298.628 13.0545 298.385 14.6554C297.715 19.006 294.752 22.8371 292.795 22.495C290.838 22.153 285.908 18.4004 286.775 12.2078C287.321 8.38679 289.807 5.26261 293.033 4.73812Z" fill="#F7A491"/>
<path d="M288.147 12.9476C287.98 13.9029 287.216 14.5692 286.438 14.4324C285.659 14.2956 285.173 13.4189 285.33 12.4535C285.487 11.4881 286.258 10.8319 287.037 10.9687C287.815 11.1055 288.311 11.9898 288.147 12.9476Z" fill="#F7A491"/>
<path d="M287.036 10.9687C287.036 10.9687 289.405 11.5591 290.282 10.0312C291.159 8.50331 294.304 5.21697 298.297 6.57762C302.289 7.93828 294.782 3.25834 294.464 3.25834L290.31 3.23047C290.31 3.23047 287.354 5.66799 287.245 5.93404C287.137 6.20009 286.287 9.12156 286.287 9.12156L287.036 10.9687Z" fill="#0E2E35"/>
<path d="M234.775 317.967C234.88 318.366 235.038 318.75 235.246 319.107C236.596 321.57 239.731 325.087 239.731 325.087L242.156 319.611C242.156 319.611 241.761 317.893 241.076 315.436C238.732 316.049 236.51 316.403 234.775 317.967Z" fill="#F8A492"/>
<path d="M248.678 313.216C248.678 313.216 235.154 319.044 234.717 318.943C234.434 318.872 229.17 310.036 229.111 301.731C229.086 297.892 233.063 293.278 237.498 294.19C239.733 294.651 239.698 295.272 243.002 300.084C246.307 304.895 248.678 313.216 248.678 313.216Z" fill="#13375B"/>
<path d="M248.678 313.216C248.678 313.216 235.154 319.044 234.717 318.943C234.434 318.872 229.17 310.036 229.111 301.731C229.086 297.892 233.063 293.278 237.498 294.19C239.733 294.651 239.698 295.272 243.002 300.084C246.307 304.895 248.678 313.216 248.678 313.216Z" fill="url(#paint8_linear_1864_5258)"/>
<path d="M260.225 417.87C260.225 417.87 259.904 423.191 259.902 423.206C259.786 423.88 259.32 425.553 259.32 426.166C259.32 428.474 270.258 424.207 267.805 423.183C267.585 423.09 266.422 422.39 266.349 421.605C266.238 420.394 265.952 417.946 265.952 417.946L260.225 417.87Z" fill="#F7A491"/>
<path d="M267.78 423.16C267.78 423.16 265.212 423.867 263.897 424.045C262.582 424.222 260.848 422.735 259.917 423.135C258.893 423.579 258.934 427.554 258.934 427.554C258.934 427.554 272.703 428.687 276.576 427.516C278.109 427.052 273.029 424.805 267.78 423.16Z" fill="#DD513A"/>
<path d="M237.852 417.87C237.852 417.87 237.531 423.191 237.529 423.206C237.412 423.88 236.947 425.553 236.947 426.166C236.947 428.474 247.885 424.207 245.432 423.183C245.21 423.09 243.703 421.868 243.632 421.083C243.518 419.872 243.579 417.946 243.579 417.946L237.852 417.87Z" fill="#F7A491"/>
<path d="M245.408 423.16C245.408 423.16 242.839 423.867 241.524 424.045C240.21 424.222 238.475 422.735 237.545 423.135C236.521 423.579 236.48 427.554 236.48 427.554C236.48 427.554 250.313 428.874 254.204 427.516C255.726 426.989 250.669 424.805 245.408 423.16Z" fill="#DD513A"/>
<path d="M241.195 320.916L250.828 307.393C250.869 307.274 250.957 307.033 251.081 306.661C251.567 305.321 252.578 302.528 253.455 299.751V299.721C253.731 298.75 254.317 297.055 254.884 295.413C255.513 293.592 256.294 291.334 256.322 290.949C256.297 290.883 256.254 290.764 256.193 290.607C255.839 289.687 255.362 287.5 255.182 286.553C255.076 285.947 254.967 284.475 255.688 284.475C256.818 284.475 256.279 285.945 256.803 286.864C257.131 285.861 257.392 284.837 257.584 283.799L257.774 280.925C257.809 280.707 257.579 279.121 258.373 279.121H258.411C259.121 279.172 259.106 280.859 259.402 283.71C259.495 283.383 259.589 282.988 259.655 282.623C259.703 282.116 259.787 281.613 259.907 281.118C259.766 280.325 259.849 279.07 260.694 279.19C261.116 279.248 261.081 280.996 261.081 280.996C261.081 281.249 261.053 283.087 261.065 283.451C261.151 282.831 261.49 280.185 262.153 280.185C262.701 280.185 262.747 280.897 262.734 281.452C262.734 281.787 262.383 284.655 262.362 285C262.615 284.566 262.929 282.038 263.184 282.038C264.256 282.038 263.869 285.63 263.475 286.568C263.425 286.734 263.384 286.904 263.354 287.075C263.193 288.009 262.883 288.912 262.436 289.748C261.763 290.901 260.835 292.735 260.694 293.014C260.59 293.589 260.266 295.647 259.862 298.239C259.687 299.348 259.498 300.562 259.301 301.821H259.288C259.253 302.093 259.053 302.959 258.289 306.21C257.248 310.659 257.139 310.852 257.093 310.936C256.641 311.739 246.254 325.885 245.812 326.473L245.559 326.828L241.195 320.916Z" fill="#F7A491"/>
<path d="M259.111 289.376C259.111 289.376 258.33 287.371 256.939 287.369C257.183 287.293 257.441 287.276 257.692 287.32C257.943 287.364 258.18 287.468 258.383 287.622C259.051 288.147 259.111 289.376 259.111 289.376Z" fill="#F47458"/>
<path d="M238.866 285.504L237.627 293.359C237.627 293.359 242.352 297.159 245.106 296.359C247.417 295.685 245.831 292.657 245.831 292.657C245.831 292.657 244.6 288.463 244.979 286.264C245.359 284.065 238.866 285.504 238.866 285.504Z" fill="#F7A491"/>
<path d="M239.759 287.88C241.459 288.643 243.26 289.155 245.106 289.401C244.932 288.301 244.831 287.138 244.98 286.279C245.155 285.266 243.865 285.012 242.426 285.058C240.545 285.22 238.867 285.514 238.867 285.514L238.629 287.034C238.951 287.383 239.334 287.67 239.759 287.88Z" fill="#FE875E"/>
<path d="M232.905 276.438C232.711 276.438 234.774 285.22 237.962 286.73C241.15 288.24 245.916 287.452 246.811 285.088C247.8 282.473 244.194 273.516 239.706 272.379C235.219 271.241 232.905 276.438 232.905 276.438Z" fill="#F7A491"/>
<path d="M236.6 268.373C234.787 269.426 233.349 271.021 232.486 272.934C231.29 273.502 229.841 274.733 229.146 278.05C228.291 282.129 231.33 285.271 234.552 286.216C237.773 287.161 238.281 289.295 238.281 289.295L238.647 286.994C238.647 286.994 237.929 284.992 236.852 283.991C235.775 282.991 237.358 281.529 237.502 280.338C237.608 279.423 236.936 277.642 237.082 276.137C237.082 276.137 238.872 273.418 240.637 272.746C243.633 271.601 239.871 266.48 236.6 268.373Z" fill="#13375B"/>
<path d="M237.956 281.868C238.373 282.881 238.209 283.895 237.574 284.115C236.94 284.336 236.1 283.707 235.683 282.691C235.266 281.675 235.43 280.664 236.065 280.444C236.699 280.223 237.539 280.852 237.956 281.868Z" fill="#F7A491"/>
<path d="M249.848 321.134L268.428 318.094C268.428 318.094 266.315 312.76 265.559 312.76C264.803 312.76 251.509 318.588 251.509 318.588L250.452 320.716L249.848 321.134Z" fill="#F8A492"/>
<path d="M240.331 333.902C240.331 333.902 238.475 342.882 239.231 349.69C239.987 356.499 240.05 380.689 240.05 380.689L237.168 419.39L243.994 419.54C243.994 419.54 252.113 380.856 251.961 381.844C251.81 382.833 254.682 354.609 254.682 354.609L245.013 333.046L240.331 333.902Z" fill="#184655"/>
<path d="M242.143 333.476C242.143 333.476 240.932 341.562 242.444 345.109C243.955 348.656 255.401 383.451 255.553 386.289C255.705 389.126 259.51 420.495 259.51 420.495L267.461 420.272L269.183 385.407L265.58 341.572L262.084 330.494L242.143 333.476Z" fill="#13375B"/>
<path d="M237.627 293.364C237.627 293.364 239.589 294.653 241.419 294.504C243.25 294.354 245.834 292.662 245.834 292.662L245.475 291.443C245.475 291.443 240.744 290.751 240.626 290.825C240.507 290.898 237.627 293.364 237.627 293.364Z" fill="#F7A491"/>
<path d="M258.529 312.502C258.529 312.502 265.558 319.148 268.731 318.013C271.904 316.877 273.216 312.998 265.475 307.322C258.547 302.245 258.529 312.502 258.529 312.502Z" fill="#F8A492"/>
<path d="M263.293 320.709C262.249 315.015 254.682 297.301 254.077 294.04C253.784 292.452 249.701 292.419 245.815 292.624C241.706 292.844 237.628 293.364 237.628 293.364C237.628 293.364 233.992 293.962 232.394 295.464C230.797 296.967 230.372 301.12 232.668 309.005C234.483 315.228 236.733 318.633 237.848 323.194C238.073 324.714 238.265 326.214 238.521 327.968C238.93 334.746 238.521 343.703 238.521 343.703C238.521 343.703 258.312 347.815 265.715 341.574C265.71 341.557 264.363 326.541 263.293 320.709Z" fill="#355389"/>
<path d="M263.293 320.709C262.249 315.015 254.682 297.301 254.077 294.04C253.784 292.452 249.701 292.419 245.815 292.624C241.706 292.844 237.628 293.364 237.628 293.364C237.628 293.364 233.992 293.962 232.394 295.464C230.797 296.967 230.372 301.12 232.668 309.005C234.483 315.228 236.733 318.633 237.848 323.194C238.073 324.714 238.265 326.214 238.521 327.968C238.93 334.746 238.521 343.703 238.521 343.703C238.521 343.703 258.312 347.815 265.715 341.574C265.71 341.557 264.363 326.541 263.293 320.709Z" fill="url(#paint9_linear_1864_5258)"/>
<path d="M268.336 308.468C268.336 308.468 260.572 314.893 260.119 314.893C259.826 314.893 249.037 306.937 246.547 300.403C245.169 296.789 248.064 292.748 251.351 292.763C253.626 292.763 254.655 293.361 259.189 297.192C263.722 301.023 268.336 308.468 268.336 308.468Z" fill="#466EB6"/>
<path d="M268.336 308.468C268.336 308.468 260.572 314.893 260.119 314.893C259.826 314.893 249.037 306.937 246.547 300.403C245.169 296.789 248.064 292.748 251.351 292.763C253.626 292.763 254.655 293.361 259.189 297.192C263.722 301.023 268.336 308.468 268.336 308.468Z" fill="url(#paint10_linear_1864_5258)"/>
<path d="M115.443 21.7274C116.708 18.6589 118.01 15.5829 121.312 14.0297C123.984 12.7628 126.775 13.2442 129.149 15.0432C135.875 20.1108 130.014 25.6978 137.672 35.3136C140.052 38.301 142.931 40.7132 144.357 44.2149C146.352 49.1127 143.976 51.4666 140.165 53.8129C121.939 65.0402 112.384 41.9877 112.728 36.7148C112.983 32.7798 114.624 23.7037 115.443 21.7274Z" fill="#13375B"/>
<path d="M96.5264 81.4795C97.2849 81.3554 99.161 80.0175 99.8133 79.8959C100.319 79.7996 101.429 79.6425 101.899 79.5614C102.476 77.4052 105.403 65.6432 105.73 62.1973C106.094 58.4624 108.718 42.3145 108.718 42.3145L115.545 43.5561C115.545 43.5561 112.71 55.9869 111.926 62.0148C111.254 67.1914 105.585 78.8317 104.865 80.058C104.865 80.0885 104.865 80.1163 104.865 80.1493C104.756 81.9761 103.876 81.3655 103.876 81.3655L102.45 81.7329C102.45 81.7329 97.3937 82.2194 97.07 82.341C96.7464 82.4626 95.7578 81.6011 96.5264 81.4795Z" fill="#F7A491"/>
<path d="M114.681 32.8584C109.854 34.4978 107.113 47.6355 107.113 47.6355C107.113 47.6355 114.681 49.7538 116.62 48.6491C116.62 48.6491 118.822 38.8711 119.611 39.2132L114.681 32.8584Z" fill="#6A97CE"/>
<path d="M77.3674 104.188C76.3774 106.822 75.6045 109.534 75.0565 112.296C75.0236 112.514 75.3321 113.575 75.3093 113.801C72.3461 117.855 68.0884 118.739 64.4375 118.995C66.2983 117.176 69.0315 115.448 69.1629 114.875C70.0579 111.374 70.6875 107.811 71.0465 104.215C73.3043 105.267 74.839 104.433 77.3674 104.188Z" fill="#F7A491"/>
<path d="M119.337 60.5402L125.858 78.9406C125.858 78.9406 115.38 80.917 111.464 81.6366C107.547 82.3562 85.6749 83.3165 85.1085 83.7042C84.6964 83.993 80.1758 98.6536 78.1556 106.726C75.865 107.233 71.9435 106.625 69.8577 105.903C70.9853 94.3436 75.0559 76.0293 76.358 74.0352C78.4919 70.7869 119.337 60.5402 119.337 60.5402Z" fill="#256653"/>
<path d="M93.8758 112.248C93.3942 115.024 93.1405 117.835 93.1173 120.652C93.1173 120.873 93.6229 121.856 93.6406 122.086C91.4941 126.627 87.4791 128.297 83.9395 129.224C85.4261 127.088 87.7876 124.881 87.8078 124.291C88.0347 120.682 87.9874 117.061 87.6662 113.459C90.0934 114.077 91.4511 112.967 93.8758 112.248Z" fill="#F7A491"/>
<path d="M126.958 61.4956L129.486 65.8233C130.389 67.3734 130.946 69.1012 131.119 70.8878C131.291 72.6743 131.075 74.4772 130.485 76.172C129.896 77.8668 128.946 79.4133 127.703 80.7049C126.459 81.9966 124.951 83.0026 123.282 83.6537L123.168 83.6968C119.456 85.1411 98.1374 90.1909 97.6671 90.6774C97.3157 91.0398 95.6166 106.281 95.1388 114.597C92.9821 115.524 89.0177 115.663 86.8332 115.357C85.7789 103.787 86.3528 85.0321 87.2605 82.8302C88.7446 79.2322 126.958 61.4956 126.958 61.4956Z" fill="#327F6B"/>
<path d="M92.7888 120.786C93.3577 120.158 95.441 123.614 95.9619 124.351C96.5484 125.183 96.3816 125.808 96.3108 125.938C96.1262 126.28 85.1381 132.759 82.4581 133.22C82.1749 133.235 81.8943 133.159 81.6566 133.004C80.6099 132.074 85.4289 125.215 87.5931 124.313C88.9963 123.731 90.2453 123.612 92.7888 120.786Z" fill="#13375B"/>
<path d="M74.6999 112.425C75.375 111.918 76.7757 115.701 77.1499 116.525C77.5696 117.449 77.2889 118.032 77.1954 118.146C76.9425 118.448 64.9456 122.748 62.2277 122.707C61.9429 122.67 61.6773 122.543 61.4692 122.345C60.6146 121.235 66.632 115.402 68.9277 114.923C70.4194 114.607 71.6634 114.721 74.6999 112.425Z" fill="#13375B"/>
<path d="M119.254 32.8204C119.088 32.8101 118.925 32.7769 118.768 32.7216C117.871 32.5594 115.914 32.3238 114.389 32.9749C112.533 33.7579 109.661 41.0831 109.838 48.5984C109.906 49.7487 109.977 50.7775 110.035 51.4945C110.503 57.1728 112.129 67.8274 112.217 67.8832C114.427 69.3097 127.769 63.7809 128.687 62.5622C129.605 61.3434 130.143 46.5992 130.591 45.8543L131.473 33.0155C129.916 32.5518 121.625 32.8052 119.254 32.8204Z" fill="url(#paint11_linear_1864_5258)"/>
<path d="M124.661 28.095C124.661 28.095 123.801 32.5469 123.973 34.3028C124.145 36.0587 123.318 41.7218 119.607 41.7395C115.895 41.7573 118.904 34.5435 119.253 32.8205C119.602 31.0975 119.685 25.7715 119.685 25.7715L124.661 28.095Z" fill="#F7A491"/>
<path d="M119.609 28.4446C119.668 26.9877 119.685 25.7715 119.685 25.7715L124.661 28.095C124.661 28.095 124.484 29.0046 124.307 30.1651C122.13 30.6034 120.552 29.7952 119.609 28.4446Z" fill="#F47458"/>
<path d="M126.479 15.8057C127.725 16.5821 128.653 17.7791 129.096 19.1807C129.796 21.4915 129 27.451 124.039 28.8902C119.079 30.3294 116.942 25.5963 117.971 21.9172C119 18.2381 121.21 13.5531 126.479 15.8057Z" fill="#F7A491"/>
<path d="M117.353 20.4881C117.449 21.4788 117.995 22.2364 118.572 22.1782C119.148 22.1199 119.535 21.2736 119.439 20.2829C119.343 19.2922 118.797 18.5345 118.22 18.5903C117.644 18.646 117.255 19.4949 117.353 20.4881Z" fill="#F7A491"/>
<path d="M125.91 15.5044C125.91 15.5044 126.808 22.1531 128.944 23.3592C131.081 24.5653 130.191 27.507 130.191 27.507C130.191 27.507 132.137 20.6658 130.443 18.4588C128.749 16.2519 125.91 15.5044 125.91 15.5044Z" fill="#13375B"/>
<path d="M127.681 24.3066C127.1 25.1732 127.102 26.1943 127.681 26.5871C128.26 26.9798 129.198 26.5871 129.792 25.7306C130.387 24.8742 130.371 23.8429 129.792 23.4502C129.213 23.0575 128.253 23.4401 127.681 24.3066Z" fill="#F7A491"/>
<path d="M137.793 80.9247L152.839 80.1646C152.839 80.1646 146.665 84.6114 146.538 84.6114C146.412 84.6114 141.621 82.7161 141.411 82.7161C141.201 82.7161 137.793 80.9247 137.793 80.9247Z" fill="#50BFA5"/>
<path d="M439.021 418.078C439.021 418.078 439.314 423.31 439.317 423.32C439.426 423.984 439.85 425.623 439.85 426.229C439.85 428.509 429.813 424.303 432.063 423.297C432.265 423.206 433.327 422.519 433.401 421.747C433.502 420.558 433.765 418.151 433.765 418.151L439.021 418.078Z" fill="#F7A491"/>
<path d="M431.964 423.33C433.137 423.68 434.327 423.969 435.529 424.197C436.737 424.372 438.328 422.91 439.182 423.305C440.123 423.738 440.085 427.648 440.085 427.648C440.085 427.648 427.443 428.76 423.904 427.61C422.483 427.154 427.148 424.947 431.964 423.33Z" fill="#F7CC7F"/>
<path d="M455.738 417.824C455.738 417.824 456.034 423.057 456.034 423.067C456.142 423.731 456.57 425.37 456.57 425.975C456.57 428.243 446.53 424.05 448.78 423.044C448.985 422.953 450.368 421.752 450.433 420.979C450.537 419.79 450.481 417.898 450.481 417.898L455.738 417.824Z" fill="#F7A491"/>
<path d="M448.807 423.016C449.979 423.366 451.169 423.655 452.372 423.882C453.578 424.055 455.17 422.595 456.023 422.991C456.963 423.424 457.001 427.331 457.001 427.331C457.001 427.331 444.45 427.838 440.731 427.293C439.27 427.075 443.988 424.63 448.807 423.016Z" fill="#F7CC7F"/>
<path d="M452.762 334.746C452.762 334.746 454.463 343.569 453.773 350.258C453.083 356.947 453.014 380.712 453.014 380.712L456.213 418.719L449.386 418.878C449.386 418.878 441.94 380.871 442.079 381.849C442.218 382.827 439.584 355.09 439.584 355.09L448.458 333.907L452.762 334.746Z" fill="#355389"/>
<path d="M450.381 329.047C450.381 329.047 458.09 337.183 455.222 346.072C454.07 349.64 443.339 383.742 443.19 386.529C443.041 389.316 439.557 420.127 439.557 420.127L432.255 419.907L430.677 385.645L432.763 339.492L437.195 331.708L450.381 329.047Z" fill="#466EB6"/>
<path d="M403.584 302.566C406.112 299.744 411.601 295.725 411.601 295.725C411.601 295.725 414.888 292.923 416.208 292.462C418.172 291.785 421.535 289.973 426.399 297.362C429.881 302.65 451.849 330.028 455.455 330.95L431.906 342.241C431.261 336.846 419.623 326.66 417.947 324.757C414.205 320.526 401.194 305.237 403.584 302.566Z" fill="#F47458"/>
<path d="M404.682 291.094L412.014 295.401C412.014 295.401 412.219 301.675 409.822 303.307C407.799 304.672 406.282 301.391 406.282 301.391C406.282 301.391 403.557 297.59 401.479 296.422C399.4 295.254 404.682 291.094 404.682 291.094Z" fill="#F7A491"/>
<path d="M405.912 293.856C405.549 295.539 404.905 297.148 404.008 298.617C403.202 297.742 402.291 296.881 401.48 296.42C400.524 295.875 401.133 294.699 402.064 293.592C403.381 292.219 404.678 291.094 404.678 291.094L406.089 291.922C406.183 292.457 406.006 293.415 405.912 293.856Z" fill="#F47458"/>
<path d="M400.862 280.309C400.985 280.155 407.015 287.678 406.272 291.205C405.529 294.732 401.883 297.952 399.35 297.066C396.548 296.087 391.337 287.232 393.206 282.932C395.074 278.632 400.862 280.309 400.862 280.309Z" fill="#F7A491"/>
<path d="M394.26 277.935C396.89 276.471 401.178 276.05 404.374 277.73C408.313 279.798 409.21 284.997 407.977 288.169C406.743 291.342 408.156 293.136 408.156 293.136L406.065 291.912C406.065 291.912 404.844 290.004 404.685 288.481C404.525 286.958 402.311 287.229 401.228 286.54C400.397 286.008 399.335 284.28 397.987 283.386C397.987 283.386 394.594 282.968 392.93 283.908C390.091 285.506 390.496 280.036 394.26 277.935Z" fill="#13375B"/>
<path d="M402.932 287.807C402.912 288.935 403.438 289.86 404.121 289.87C404.803 289.88 405.359 288.975 405.385 287.843C405.41 286.71 404.879 285.79 404.196 285.78C403.514 285.77 402.95 286.68 402.932 287.807Z" fill="#F7A491"/>
<path d="M388.737 341.384C389.536 340.214 389.885 338.524 390.99 337.236C391.482 336.709 392.03 336.237 392.626 335.83C397.935 332.711 411.8 324.681 412.346 324.048C412.986 323.308 422.442 307.563 422.442 307.563L413.949 305.635L405.649 320.331C404.956 320.883 391.781 330.641 391.781 330.641C391.781 330.641 389.162 332.693 387.736 333.654C387.088 334.024 386.406 334.329 385.698 334.563C384.924 334.834 383.45 335.577 383.154 335.83C382.808 336.134 382.115 336.788 381.703 337.186C381.291 337.583 380.793 338.035 380.598 338.27C380.372 338.468 380.116 338.629 379.84 338.747C379.751 338.791 379.678 338.861 379.63 338.947C379.582 339.034 379.561 339.133 379.57 339.231C379.579 339.33 379.618 339.423 379.681 339.5C379.744 339.576 379.828 339.631 379.923 339.659C380.325 339.773 380.871 339.519 381.208 339.36C382.161 338.911 383.326 337.698 383.39 337.839C383.453 337.981 382.267 340.586 382.151 340.893C382.034 341.199 380.677 344.225 380.606 344.901C380.535 345.578 380.942 345.732 381.246 345.484C381.498 345.271 383.69 341.23 383.69 341.23C383.69 341.23 383.969 340.723 384.077 341.009C384.186 341.296 382.211 344.977 382.017 345.57C381.822 346.163 381.979 346.67 382.522 346.457C383.197 346.203 385.068 342.149 385.068 342.149C385.068 342.149 385.321 341.643 385.478 341.82C385.635 341.997 383.91 345.096 383.89 345.451C383.87 345.806 384.191 346.16 384.649 345.864C385.2 345.512 386.838 341.878 386.838 341.878C386.838 341.878 387.04 341.625 387.104 341.807C387.167 341.99 385.877 344.724 385.973 345.124C385.98 345.168 385.995 345.21 386.018 345.247C386.041 345.285 386.071 345.317 386.107 345.343C386.143 345.368 386.184 345.386 386.227 345.395C386.27 345.404 386.315 345.404 386.358 345.395C387.051 345.4 387.935 342.555 388.737 341.384Z" fill="#F8A492"/>
<path d="M420.109 315.879C420.109 315.879 417.343 314.997 415.571 314.184C414.382 313.639 409.199 311.055 409.199 311.055C409.199 311.055 411.432 301.606 412.944 298.211C418.488 285.745 424.786 294.342 425.641 296.346C427.552 300.828 420.109 315.879 420.109 315.879Z" fill="#355389"/>
<path d="M153.172 80.1517C153.109 79.992 152.97 79.9895 152.828 79.9844C151.446 79.9625 150.067 79.8593 148.697 79.6753C148.47 79.6436 148.248 79.5867 148.034 79.5056C147.669 79.3625 147.267 79.3473 146.892 79.4625C146.684 79.5144 146.471 79.5374 146.257 79.5309C145.564 79.5309 143.582 78.8518 142.566 78.6745C142.452 78.654 142.347 78.6009 142.262 78.5218C142.178 78.4427 142.118 78.3409 142.09 78.2285C141.079 74.2606 138.943 65.3568 138.664 62.4302C138.3 58.6853 135.727 41.8076 135.727 41.8076L128.824 43.7358C128.824 43.7358 131.666 56.1946 132.452 62.2326C133.059 66.8973 137.711 76.7969 139.168 79.6424C139.881 81.7606 141.478 81.8189 141.85 81.8645C142.063 81.8911 142.258 81.9958 142.399 82.1584C142.649 82.4542 142.942 82.7105 143.269 82.9186C143.506 83.0732 143.708 83.2761 143.863 83.514C144.156 83.9448 144.419 84.3933 144.677 84.8417C144.849 85.1407 145.031 85.2345 145.286 85.1635C145.417 85.1299 145.53 85.0486 145.604 84.9357C145.678 84.8228 145.707 84.6863 145.686 84.5529C145.67 84.0698 145.527 83.5994 145.271 83.1897C145.158 83.0467 145.101 82.8672 145.111 82.685C145.122 82.5029 145.198 82.3308 145.327 82.2015C145.476 81.9892 145.65 81.7953 145.845 81.6238C145.937 81.533 146.048 81.4633 146.17 81.4196C146.292 81.3758 146.421 81.3591 146.55 81.3704C147.049 81.4973 147.556 81.5912 148.067 81.6517L148.484 81.7353L148.712 81.7834C148.747 81.7834 149.471 81.8747 149.723 81.8747C149.926 81.8747 150.252 81.8873 150.53 81.9025C150.801 81.8881 151.07 81.8473 151.334 81.7809C151.572 81.7783 151.802 81.6881 151.979 81.5275C152.052 81.4617 152.125 81.3856 152.087 81.2741C152.07 81.2271 152.04 81.1862 152 81.1564C151.96 81.1267 151.912 81.1095 151.862 81.1069C151.522 81.0676 151.185 81.0101 150.851 80.9346C151.104 80.9346 151.903 80.9169 152.158 80.9093C152.323 80.9093 152.486 80.8751 152.637 80.8088C152.788 80.7425 152.924 80.6456 153.035 80.5241C153.127 80.4101 153.233 80.3214 153.172 80.1517Z" fill="#F7A491"/>
<path d="M131.547 32.9877C134.952 32.3669 137.764 47.6406 137.764 47.6406C137.764 47.6406 130.194 49.7589 128.255 48.6542C128.255 48.6542 126.053 38.8762 125.264 39.2183L131.547 32.9877Z" fill="#9BC1F9"/>
<path d="M49.1763 307.538C49.4038 306.892 46.2611 306.37 46.0943 305.714C45.9274 305.057 50.0612 305.009 50.2079 304.431C50.4809 303.372 45.6771 304.208 45.7732 303.714C45.8692 303.22 50.7793 302.11 50.2483 301.262C49.7174 300.413 45.2751 302.942 45.1386 302.364C45.002 301.786 49.4822 300.382 49.4013 299.118C49.3583 298.442 42.054 302.491 41.207 302.123C40.36 301.756 42.1172 298.576 41.4447 298.105C40.7721 297.633 38.8329 304.563 38.3677 304.796C37.9025 305.029 28.0344 310.672 24.5226 311.569C24.0953 310.391 23.175 308.8 22.7983 307.685C20.8287 309.091 19.3648 309.795 17.332 311.078C18.8035 314.777 20.902 318.829 21.9285 319.292C25.0535 320.709 37.1389 310.662 39.551 308.942C41.963 307.221 43.3435 307.779 44.9818 307.236C46.6202 306.694 48.9513 308.187 49.1763 307.538Z" fill="#F7A491"/>
</g>
<defs>
<linearGradient id="paint0_linear_1864_5258" x1="29.9509" y1="290.834" x2="29.9509" y2="334.876" gradientUnits="userSpaceOnUse">
<stop stop-color="#EFF32D"/>
<stop offset="1" stop-color="#40E651"/>
</linearGradient>
<linearGradient id="paint1_linear_1864_5258" x1="122.699" y1="208" x2="122.699" y2="427.386" gradientUnits="userSpaceOnUse">
<stop stop-color="#EE755A"/>
<stop offset="1" stop-color="#CD4F33"/>
</linearGradient>
<linearGradient id="paint2_linear_1864_5258" x1="277.896" y1="259.938" x2="277.896" y2="431.004" gradientUnits="userSpaceOnUse">
<stop stop-color="#D7FF35"/>
<stop offset="1" stop-color="#C79640"/>
</linearGradient>
<linearGradient id="paint3_linear_1864_5258" x1="143.758" y1="77.9727" x2="143.758" y2="251.84" gradientUnits="userSpaceOnUse">
<stop stop-color="#42CD69"/>
<stop offset="1" stop-color="#34A152"/>
</linearGradient>
<linearGradient id="paint4_linear_1864_5258" x1="296.698" y1="82.0317" x2="296.698" y2="301.418" gradientUnits="userSpaceOnUse">
<stop stop-color="#45D5F4"/>
<stop offset="1" stop-color="#568CF4"/>
</linearGradient>
<linearGradient id="paint5_linear_1864_5258" x1="305.751" y1="26.0981" x2="307.471" y2="44.6259" gradientUnits="userSpaceOnUse">
<stop stop-color="#DEFB30"/>
<stop offset="1" stop-color="#F47458"/>
</linearGradient>
<linearGradient id="paint6_linear_1864_5258" x1="290.169" y1="24.4132" x2="293.463" y2="63.8107" gradientUnits="userSpaceOnUse">
<stop stop-color="#DEFB30"/>
<stop offset="1" stop-color="#F47458"/>
</linearGradient>
<linearGradient id="paint7_linear_1864_5258" x1="276.847" y1="26.1628" x2="279.065" y2="45.5664" gradientUnits="userSpaceOnUse">
<stop stop-color="#DEFB30"/>
<stop offset="1" stop-color="#F47458"/>
</linearGradient>
<linearGradient id="paint8_linear_1864_5258" x1="238.895" y1="294.073" x2="238.895" y2="318.944" gradientUnits="userSpaceOnUse">
<stop stop-color="#BE3AF1"/>
<stop offset="1" stop-color="#E01351"/>
</linearGradient>
<linearGradient id="paint9_linear_1864_5258" x1="248.393" y1="292.535" x2="248.393" y2="345.032" gradientUnits="userSpaceOnUse">
<stop stop-color="#BE3AF1"/>
<stop offset="1" stop-color="#E01351"/>
</linearGradient>
<linearGradient id="paint10_linear_1864_5258" x1="257.266" y1="292.763" x2="257.266" y2="314.893" gradientUnits="userSpaceOnUse">
<stop stop-color="#BE3AF1"/>
<stop offset="1" stop-color="#E01351"/>
</linearGradient>
<linearGradient id="paint11_linear_1864_5258" x1="120.652" y1="32.5432" x2="120.652" y2="68.1166" gradientUnits="userSpaceOnUse">
<stop offset="0.3295" stop-color="#9BC1F9"/>
<stop offset="1" stop-color="#F3D538"/>
</linearGradient>
<clipPath id="clip0_1864_5258">
<rect width="457" height="431" fill="white"/>
</clipPath>
</defs>
</svg>
