<svg width="70" height="32" viewBox="0 0 70 32" fill="none" xmlns="http://www.w3.org/2000/svg">
<path d="M13.871 4.12402H10.5524C8.93935 4.12593 7.39294 4.76755 6.25237 5.90813C5.11179 7.0487 4.47017 8.59511 4.46826 10.2081V14.6329C4.47172 17.7124 5.69656 20.6647 7.87407 22.8422C10.0516 25.0198 13.0039 26.2446 16.0834 26.2481H19.402C19.4746 26.2481 19.5466 26.2338 19.6137 26.206C19.6808 26.1783 19.7418 26.1375 19.7932 26.0861C19.8445 26.0348 19.8853 25.9738 19.9131 25.9067C19.9408 25.8395 19.9551 25.7676 19.9551 25.695V10.2081C19.9532 8.59511 19.3116 7.0487 18.171 5.90813C17.0304 4.76755 15.484 4.12593 13.871 4.12402ZM13.871 5.23022C14.685 5.23591 15.4848 5.44372 16.1986 5.83499C15.301 6.04678 14.4686 6.4745 13.7738 7.08101C13.079 7.68752 12.5428 8.45448 12.2117 9.31529C11.8806 8.45448 11.3443 7.68752 10.6495 7.08101C9.95473 6.4745 9.12237 6.04678 8.22473 5.83499C8.93854 5.44372 9.73838 5.23591 10.5524 5.23022H13.871ZM5.57446 10.2081C5.5753 8.91374 6.08258 7.67106 6.9878 6.74586C9.91196 7.00944 11.6586 9.10428 11.6586 12.4205C11.6586 12.5672 11.7168 12.7079 11.8206 12.8116C11.9243 12.9154 12.065 12.9736 12.2117 12.9736C12.3584 12.9736 12.499 12.9154 12.6028 12.8116C12.7065 12.7079 12.7648 12.5672 12.7648 12.4205C12.7648 9.10428 14.5114 7.00944 17.4355 6.74586C18.3408 7.67106 18.848 8.91374 18.8489 10.2081V10.7612C18.8489 14.3607 14.7719 17.3984 12.2117 17.3984C9.65142 17.3984 5.57446 14.3607 5.57446 10.7612V10.2081ZM5.57446 14.6329V14.3265C7.14618 16.8069 10.0739 18.5046 12.2117 18.5046C13.2172 18.5046 14.3973 18.1239 15.5303 17.4686V19.0577C15.5303 21.7603 16.2514 23.7944 17.6657 25.1418H16.0834C13.2972 25.1387 10.6261 24.0305 8.65595 22.0604C6.68584 20.0902 5.57763 17.4191 5.57446 14.6329ZM18.8489 24.6977C17.3659 23.5829 16.6365 21.7312 16.6365 19.0577V16.7315C17.5071 16.0635 18.2556 15.2498 18.8489 14.3265V24.6977Z" fill="#282828"/>
<path d="M8.34009 10.761C8.55887 10.761 8.77275 10.6961 8.95466 10.5746C9.13658 10.453 9.27836 10.2802 9.36209 10.0781C9.44581 9.87598 9.46772 9.65356 9.42503 9.43898C9.38235 9.22439 9.277 9.02729 9.12229 8.87258C8.96759 8.71788 8.77048 8.61252 8.5559 8.56984C8.34132 8.52716 8.11889 8.54906 7.91676 8.63279C7.71463 8.71651 7.54187 8.8583 7.42032 9.04021C7.29876 9.22213 7.23389 9.436 7.23389 9.65479C7.23418 9.94808 7.35082 10.2293 7.55821 10.4367C7.7656 10.6441 8.0468 10.7607 8.34009 10.761Z" fill="#282828"/>
<path d="M16.0835 10.761C16.3023 10.761 16.5162 10.6961 16.6981 10.5746C16.88 10.453 17.0218 10.2802 17.1055 10.0781C17.1892 9.87598 17.2111 9.65356 17.1684 9.43898C17.1258 9.22439 17.0204 9.02729 16.8657 8.87258C16.711 8.71788 16.5139 8.61252 16.2993 8.56984C16.0847 8.52716 15.8623 8.54906 15.6602 8.63279C15.458 8.71651 15.2853 8.8583 15.1637 9.04021C15.0422 9.22213 14.9773 9.436 14.9773 9.65479C14.9776 9.94808 15.0942 10.2293 15.3016 10.4367C15.509 10.6441 15.7902 10.7607 16.0835 10.761Z" fill="#282828"/>
<path d="M31.3702 6.3136H28.4663V15.3059H27.2879V6.3136H24.391V5.24742H31.3702V6.3136ZM35.2982 9.28765C35.0971 9.13334 34.8072 9.05618 34.4284 9.05618C33.9374 9.05618 33.5259 9.28765 33.1939 9.75059C32.8666 10.2135 32.7029 10.8448 32.7029 11.6445V15.3059H31.5526V8.12328H32.7029V9.60329H32.731C32.8946 9.09827 33.1448 8.70547 33.4815 8.42489C33.8182 8.13965 34.1946 7.99702 34.6108 7.99702C34.9101 7.99702 35.1392 8.02976 35.2982 8.09522V9.28765ZM42.3546 15.3059H41.2042V14.1696H41.1762C40.6992 15.0394 39.9604 15.4743 38.9596 15.4743C37.2482 15.4743 36.3924 14.4548 36.3924 12.416V8.12328H37.5357V12.2337C37.5357 13.7487 38.1156 14.5063 39.2753 14.5063C39.8364 14.5063 40.297 14.3005 40.6571 13.889C41.0218 13.4728 41.2042 12.9304 41.2042 12.2617V8.12328H42.3546V15.3059ZM50.4561 12.0022H45.3847C45.4034 12.8018 45.6185 13.4191 46.03 13.854C46.4416 14.2888 47.0074 14.5063 47.7275 14.5063C48.5365 14.5063 49.28 14.2397 49.958 13.7067V14.7869C49.3268 15.2451 48.4921 15.4743 47.4539 15.4743C46.4392 15.4743 45.6419 15.1493 45.0621 14.4993C44.4822 13.8446 44.1923 12.9257 44.1923 11.7427C44.1923 10.625 44.5079 9.71552 45.1392 9.01409C45.7752 8.30799 46.5631 7.95494 47.503 7.95494C48.443 7.95494 49.1701 8.25889 49.6845 8.86679C50.1989 9.4747 50.4561 10.3188 50.4561 11.399V12.0022ZM49.2777 11.0272C49.273 10.3632 49.1117 9.84646 48.7937 9.47704C48.4804 9.10762 48.0431 8.92291 47.482 8.92291C46.9396 8.92291 46.479 9.11697 46.1002 9.50509C45.7214 9.89322 45.4876 10.4006 45.3988 11.0272H49.2777ZM59.7149 11.2376C59.7149 14.062 58.4407 15.4743 55.8921 15.4743C53.4512 15.4743 52.2307 14.1158 52.2307 11.399V5.24742H53.4091V11.3218C53.4091 13.384 54.2788 14.4151 56.0184 14.4151C57.6971 14.4151 58.5365 13.4191 58.5365 11.427V5.24742H59.7149V11.2376ZM63.4114 11.5042V15.3059H62.233V5.24742H64.9967C66.0722 5.24742 66.9046 5.50929 67.4938 6.03302C68.0876 6.55676 68.3846 7.29559 68.3846 8.24954C68.3846 9.20348 68.0549 9.9844 67.3956 10.5923C66.7409 11.2002 65.8548 11.5042 64.7371 11.5042H63.4114ZM63.4114 6.3136V10.438H64.646C65.4596 10.438 66.0792 10.2533 66.5047 9.88387C66.935 9.50977 67.1501 8.9837 67.1501 8.30565C67.1501 6.97761 66.3645 6.3136 64.7933 6.3136H63.4114Z" fill="#282828"/>
<path d="M28.7277 19.9898H26.8798V25.7122H26.1299V19.9898H24.2864V19.3113H28.7277V19.9898ZM32.4191 23.6098H29.1919C29.2038 24.1186 29.3407 24.5114 29.6026 24.7882C29.8645 25.0649 30.2245 25.2033 30.6828 25.2033C31.1976 25.2033 31.6707 25.0337 32.1022 24.6944V25.3818C31.7005 25.6735 31.1693 25.8193 30.5087 25.8193C29.863 25.8193 29.3556 25.6125 28.9866 25.1988C28.6176 24.7822 28.4331 24.1975 28.4331 23.4446C28.4331 22.7334 28.634 22.1546 29.0357 21.7083C29.4404 21.2589 29.9418 21.0343 30.54 21.0343C31.1381 21.0343 31.6008 21.2277 31.9281 21.6145C32.2555 22.0014 32.4191 22.5385 32.4191 23.2259V23.6098ZM31.6693 22.9893C31.6663 22.5668 31.5636 22.238 31.3613 22.0029C31.1619 21.7678 30.8837 21.6502 30.5266 21.6502C30.1814 21.6502 29.8883 21.7737 29.6472 22.0207C29.4062 22.2677 29.2574 22.5906 29.2009 22.9893H31.6693ZM36.6462 25.5024C36.2951 25.7136 35.8785 25.8193 35.3964 25.8193C34.7447 25.8193 34.218 25.608 33.8163 25.1854C33.4175 24.7599 33.2181 24.2094 33.2181 23.5339C33.2181 22.781 33.4339 22.177 33.8654 21.7217C34.2969 21.2634 34.8727 21.0343 35.5928 21.0343C35.9945 21.0343 36.3486 21.1087 36.6551 21.2574V22.0073C36.3159 21.7693 35.9529 21.6502 35.566 21.6502C35.0988 21.6502 34.7149 21.8184 34.4144 22.1546C34.1168 22.4879 33.968 22.9268 33.968 23.4714C33.968 24.007 34.1079 24.4296 34.3876 24.7391C34.6703 25.0486 35.0482 25.2033 35.5214 25.2033C35.9201 25.2033 36.2951 25.0709 36.6462 24.806V25.5024ZM41.5473 25.7122H40.8152V23.0786C40.8152 22.1264 40.4611 21.6502 39.7529 21.6502C39.3958 21.6502 39.0953 21.7886 38.8512 22.0654C38.6072 22.3391 38.4852 22.6918 38.4852 23.1232V25.7122H37.7532V18.9453H38.4852V21.9002H38.5031C38.8542 21.3229 39.3541 21.0343 40.0029 21.0343C41.0325 21.0343 41.5473 21.6547 41.5473 22.8956V25.7122Z" fill="#282828"/>
</svg>
